<?xml version="1.0" encoding="UTF-8"?> <svg xmlns="http://www.w3.org/2000/svg" viewBox="0 0 49.46 51.5"><defs><style>.cls-1,.cls-2,.cls-3{fill:none;stroke:#008ad1;stroke-linejoin:round;}.cls-1,.cls-2{stroke-linecap:round;}.cls-1,.cls-3{stroke-width:1.5px;}.cls-2{stroke-width:2px;}.cls-4{fill:#008ad1;}</style></defs><g id="Layer_2" data-name="Layer 2"><g id="Layer_1-2" data-name="Layer 1"><circle class="cls-1" cx="21.13" cy="47.5" r="3.25"></circle><circle class="cls-1" cx="37.11" cy="47.5" r="3.25"></circle><line class="cls-2" x1="17.64" y1="28.44" x2="36.8" y2="28.44"></line><line class="cls-2" x1="17.64" y1="32.21" x2="40.36" y2="32.21"></line><line class="cls-2" x1="17.64" y1="35.98" x2="40.36" y2="35.98"></line><circle class="cls-3" cx="38.63" cy="10.83" r="10.08"></circle><path class="cls-4" d="M37.33,11.38V10.05h1.24c.87,0,1.79-.23,1.81-1,0-.49-.4-1.14-1.77-1.14-.76,0-1.79.27-1.79,1.06H35.19c0-1.86,1.85-2.53,3.43-2.53S42,7.19,42,9a1.83,1.83,0,0,1-1.2,1.7,2,2,0,0,1,1.4,1.8c0,2.1-2,2.73-3.63,2.73s-3.5-.69-3.51-2.64h1.63c0,.88,1.19,1.19,1.89,1.19s1.92-.35,1.92-1.27c0-.51-.28-1.15-1.83-1.15Z"></path><polyline class="cls-1" points="0.75 20.02 0.75 15.47 7.96 15.47 15.91 41.42 41.93 41.42 47.82 24.52 14.71 20.5"></polyline></g></g></svg> 