<?xml version="1.0" encoding="UTF-8"?> <svg xmlns="http://www.w3.org/2000/svg" viewBox="0 0 71.75 46.42"><defs><style>.cls-1{fill:none;stroke:#008ad1;stroke-linejoin:round;stroke-width:1.5px;}</style></defs><g id="Layer_2" data-name="Layer 2"><g id="Layer_1-2" data-name="Layer 1"><g id="Layer_2-2" data-name="Layer 2"><g id="Layer_1-2-2" data-name="Layer 1-2"><path class="cls-1" d="M29.84,8.71A4,4,0,0,1,27.42,6.4l-.1-.27L41.08.75l16.68,7.3,1.56-.64"></path><path class="cls-1" d="M32.9,8.52l-.33.13a4,4,0,0,1-2.73.06"></path><path class="cls-1" d="M32.9,8.52l7.27-2.84,8,3.49,1.33,3.41a7.19,7.19,0,0,1-4.06,9.3l-2.27.89a3.62,3.62,0,0,0-2.06,4.69l.17.43,22.61-8.84"></path><rect class="cls-1" x="61.35" y="4.71" width="7.27" height="14.42" transform="translate(0.12 24.49) rotate(-21.36)"></rect><path class="cls-1" d="M28,18.23a9.27,9.27,0,0,1,3,10.1l4.49,1.46c.07-.22.15-.44.21-.64a14.2,14.2,0,0,0,.34-1.7,1.1,1.1,0,0,1,.74-.89l3.51-1a.27.27,0,0,0,.21-.28l-.39-3.58a.25.25,0,0,0-.12-.19.2.2,0,0,0-.16-.07l-3.63-.24a1.08,1.08,0,0,1-1-.68A13.69,13.69,0,0,0,33.3,17a1.12,1.12,0,0,1-.08-1.18L35,12.69a.31.31,0,0,0-.07-.38l-2.8-2.25a.32.32,0,0,0-.39,0L29,12.49a1.08,1.08,0,0,1-1.16.19,13.55,13.55,0,0,0-3.74-1.06,1.06,1.06,0,0,1-.89-.78l-1-3.47a.39.39,0,0,0-.1-.16.4.4,0,0,0-.22-.06l-3.58.4a.31.31,0,0,0-.26.29l-.2,3.65a1.1,1.1,0,0,1-.7,1q-.8.32-1.53.69l-.24.15,2.13,4.2A9.24,9.24,0,0,1,28,18.23Z"></path><path class="cls-1" d="M31.62,34.85a1.1,1.1,0,0,1-.12-1.18,12.36,12.36,0,0,0,.59-1.34L27.7,30.67a9.26,9.26,0,1,1-15.59-9.42,9.06,9.06,0,0,1,2.62-2.07l-1.92-4.3a17.62,17.62,0,0,0-1.68,1,1.07,1.07,0,0,1-1.19,0L6.87,14a.32.32,0,0,0-.38.06L4.12,16.76a.32.32,0,0,0,0,.39L6.43,20a1.07,1.07,0,0,1,.13,1.16,14.2,14.2,0,0,0-1.24,3.69,1.07,1.07,0,0,1-.8.86L1,26.52a.29.29,0,0,0-.23.31L1,30.41a.35.35,0,0,0,.1.21.49.49,0,0,0,.17.06l3.64.37a1.06,1.06,0,0,1,.92.74A13.88,13.88,0,0,0,7.49,35.2a1.08,1.08,0,0,1,0,1.17L5.57,39.46a.29.29,0,0,0,.06.38l2.7,2.38a.3.3,0,0,0,.38,0l2.83-2.29a1.08,1.08,0,0,1,1.17-.13,13,13,0,0,0,3.68,1.28,1.06,1.06,0,0,1,.84.82l.84,3.54a.42.42,0,0,0,.09.16.33.33,0,0,0,.21.07l3.6-.23a.28.28,0,0,0,.27-.27l.39-3.62a1.07,1.07,0,0,1,.73-.88A14.12,14.12,0,0,0,26.87,39,1.06,1.06,0,0,1,28,39l3.09,1.92.06,0a.28.28,0,0,0,.33-.09l2.38-2.7a.3.3,0,0,0,0-.38Z"></path></g></g></g></g></svg> 