<?xml version="1.0" encoding="UTF-8"?> <svg xmlns="http://www.w3.org/2000/svg" viewBox="0 0 100.99 43.79"><defs><style>.cls-1,.cls-2{fill:none;stroke:#008ad1;stroke-linejoin:round;stroke-width:1.5px;}.cls-1{stroke-linecap:round;}.cls-3{font-size:11.45px;fill:#008ad1;font-family:Helvetica-BoldOblique, Helvetica;font-weight:700;font-style:oblique;}.cls-4{letter-spacing:-0.05em;}</style></defs><g id="Layer_2" data-name="Layer 2"><g id="Layer_1-2" data-name="Layer 1"><path class="cls-1" d="M23.77,3.44,24.62.75H74.71c-1.71,5.46-9.14,29-9.83,34.91H46"></path><line class="cls-1" x1="20.51" y1="14.41" x2="22.14" y2="10.29"></line><polyline class="cls-2" points="34.1 35.66 10.63 35.66 19.22 19.62"></polyline><path class="cls-2" d="M89.38,35.66h6.05c1.64-6.36,6.73-17.52-5-16.09C92.89,8.29,80.06,8.49,72.51,9L65.36,35.66h8.86"></path><path class="cls-2" d="M74.2,19.57l2-7.09c5-.5,11.86.24,9.07,7.09Z"></path><path class="cls-2" d="M89.38,35.66c.15,9.84-15.31,9.84-15.16,0C74.07,25.82,89.53,25.82,89.38,35.66Z"></path><path class="cls-2" d="M85.45,35.66c.07,4.74-7.37,4.74-7.3,0S85.52,30.92,85.45,35.66Z"></path><path class="cls-2" d="M45.34,35.66c.07,4.74-7.37,4.74-7.3,0S45.41,30.92,45.34,35.66Z"></path><line class="cls-2" y1="10.29" x2="26.07" y2="10.29"></line><line class="cls-2" x1="3.79" y1="20.19" x2="26.07" y2="20.19"></line><line class="cls-2" x1="74.2" y1="23.71" x2="85.45" y2="23.71"></line><line class="cls-2" x1="95.37" y1="23.71" x2="100.99" y2="23.71"></line><path class="cls-2" d="M49.27,35.66c.14,9.84-15.31,9.84-15.17,0C34,25.82,49.42,25.82,49.27,35.66Z"></path><text class="cls-3" transform="translate(28.94 21.58) scale(1.19 1)"><tspan class="cls-4">F</tspan><tspan x="6.37" y="0">AST</tspan></text></g></g></svg> 