<?xml version="1.0" encoding="UTF-8"?> <svg xmlns="http://www.w3.org/2000/svg" viewBox="0 0 53.97 58.36"><defs><style>.cls-1{fill:none;stroke:#008ad1;stroke-linejoin:round;stroke-width:1.5px;}.cls-2{fill:#008ad1;}</style></defs><g id="Layer_2" data-name="Layer 2"><g id="Layer_2-2" data-name="Layer 2"><path class="cls-1" d="M31.78,25.27V49.88l-8.9-5.14a3.25,3.25,0,0,1,1-2.29L25.31,41a2.19,2.19,0,0,0,0-3.09l-1.44-1.44a3.28,3.28,0,0,1-1-2.35v-2a2.2,2.2,0,0,0-2.2-2.19h-2a3.3,3.3,0,0,1-2.34-1L14.9,27.5a2.18,2.18,0,0,0-3.1,0l-1.18,1.19V13.06Z"></path><polygon class="cls-1" points="53.22 13.06 53.22 37.65 31.91 49.95 31.77 49.87 31.77 25.27 53.07 12.97 53.22 13.06"></polygon><polygon class="cls-1" points="53.07 12.97 31.77 25.27 10.61 13.06 10.61 13.06 31.91 0.75 53.07 12.97"></polygon><polygon class="cls-1" points="44.04 7.76 22.89 20.14 18.81 17.79 18.81 17.79 39.95 5.4 44.04 7.76"></polygon><path class="cls-1" d="M12.24,51.79,8.88,57.61,7.41,53,2.65,54,5.57,49A2,2,0,0,0,6,49H8a3.32,3.32,0,0,1,2.35,1l1.43,1.44a2.16,2.16,0,0,0,.33.27Z"></path><path class="cls-1" d="M24.26,54,19.5,53,18,57.61,14.6,51.67a3.11,3.11,0,0,0,.28-.23L16.34,50a3.22,3.22,0,0,1,2.34-1h2a2.19,2.19,0,0,0,.63-.1Z"></path><path class="cls-1" d="M25.31,41l-1.43,1.45c-.11.11-.21.22-.31.34l-.05.07a2.42,2.42,0,0,0-.25.4,2.67,2.67,0,0,0-.2.46,2.72,2.72,0,0,0-.13.49,2,2,0,0,0,0,.26,2.45,2.45,0,0,0,0,.27V46.8a2.22,2.22,0,0,1-1.57,2.1,2.19,2.19,0,0,1-.63.1h-2a3.22,3.22,0,0,0-2.34,1l-1.46,1.44a3.11,3.11,0,0,1-.28.23l0,0-.19.11a2.17,2.17,0,0,1-2.07,0l-.06,0-.13-.08a2.16,2.16,0,0,1-.33-.27L10.35,50A3.32,3.32,0,0,0,8,49H6a2,2,0,0,1-.43,0,2.2,2.2,0,0,1-1.74-2.16v-2a3.32,3.32,0,0,0-1-2.35L1.39,41a2.2,2.2,0,0,1,0-3.1L2.8,36.44a3.34,3.34,0,0,0,1-2.34v-2h0A2.18,2.18,0,0,1,6,29.91l2,0a3.36,3.36,0,0,0,2.35-1l.25-.25L11.8,27.5a2.18,2.18,0,0,1,3.1,0l1.44,1.43a3.3,3.3,0,0,0,2.34,1h2a2.2,2.2,0,0,1,2.2,2.19v2a3.28,3.28,0,0,0,1,2.35l1.44,1.44A2.19,2.19,0,0,1,25.31,41Z"></path><path class="cls-2" d="M13.37,48.82h0a9.35,9.35,0,0,1,0-18.7h0a9.35,9.35,0,0,1,0,18.7Zm0-17.2a7.85,7.85,0,0,0,0,15.7h0a7.85,7.85,0,0,0,0-15.7Z"></path><path class="cls-2" d="M11.69,43.41a.74.74,0,0,1-.53-.22L8.07,40.1,9.13,39l2.56,2.56,5.87-5.87,1.06,1.06-6.4,6.4A.71.71,0,0,1,11.69,43.41Z"></path></g></g></svg> 