<?xml version="1.0" encoding="UTF-8"?> <svg xmlns="http://www.w3.org/2000/svg" viewBox="0 0 50.45 57.74"><defs><style>.cls-1,.cls-2,.cls-3{fill:none;}.cls-2,.cls-3{stroke:#008ad1;stroke-linejoin:round;}.cls-2{stroke-width:1.5px;}</style></defs><g id="Layer_2" data-name="Layer 2"><g id="Layer_2-2" data-name="Layer 2"><g id="Layer_2-3" data-name="Layer 2"><g id="Layer_1-2" data-name="Layer 1-2"><polygon class="cls-1" points="7.53 49.08 7.53 56.97 0.75 53.05 0.75 45.16 7.53 49.08"></polygon><polygon class="cls-2" points="7.53 49.08 7.53 56.97 0.75 53.05 0.75 45.16 7.53 49.08"></polygon><polygon class="cls-1" points="14.41 45.16 14.41 53.05 7.58 56.99 7.53 56.97 7.53 49.08 14.37 45.13 14.41 45.16"></polygon><polygon class="cls-2" points="14.41 45.16 14.41 53.05 7.58 56.99 7.53 56.97 7.53 49.08 14.37 45.13 14.41 45.16"></polygon><polygon class="cls-1" points="14.37 45.13 7.53 49.08 0.75 45.16 0.75 45.16 7.58 41.21 14.37 45.13"></polygon><polygon class="cls-2" points="14.37 45.13 7.53 49.08 0.75 45.16 0.75 45.16 7.58 41.21 14.37 45.13"></polygon><polygon class="cls-1" points="25.31 49.04 25.31 56.94 18.52 53.01 18.52 45.13 25.31 49.04"></polygon><polygon class="cls-2" points="25.31 49.04 25.31 56.94 18.52 53.01 18.52 45.13 25.31 49.04"></polygon><polygon class="cls-1" points="32.19 45.13 32.19 53.01 25.36 56.96 25.31 56.94 25.31 49.04 32.14 45.1 32.19 45.13"></polygon><polygon class="cls-2" points="32.19 45.13 32.19 53.01 25.36 56.96 25.31 56.94 25.31 49.04 32.14 45.1 32.19 45.13"></polygon><polygon class="cls-1" points="32.14 45.1 25.31 49.04 18.52 45.13 18.52 45.13 25.36 41.18 32.14 45.1"></polygon><polygon class="cls-2" points="32.14 45.1 25.31 49.04 18.52 45.13 18.52 45.13 25.36 41.18 32.14 45.1"></polygon><polygon class="cls-1" points="42.82 49.03 42.82 56.92 36.03 53 36.03 45.11 42.82 49.03"></polygon><polygon class="cls-2" points="42.82 49.03 42.82 56.92 36.03 53 36.03 45.11 42.82 49.03"></polygon><polygon class="cls-1" points="49.7 45.11 49.7 53 42.87 56.95 42.82 56.92 42.82 49.03 49.65 45.09 49.7 45.11"></polygon><polygon class="cls-2" points="49.7 45.11 49.7 53 42.87 56.95 42.82 56.92 42.82 49.03 49.65 45.09 49.7 45.11"></polygon><polygon class="cls-1" points="49.65 45.09 42.82 49.03 36.03 45.11 36.03 45.11 42.87 41.16 49.65 45.09"></polygon><polygon class="cls-2" points="49.65 45.09 42.82 49.03 36.03 45.11 36.03 45.11 42.87 41.16 49.65 45.09"></polygon><line class="cls-3" x1="25.24" y1="30.8" x2="25.24" y2="39.96"></line><path class="cls-3" d="M41.27,40V36.88a3.14,3.14,0,0,0-3.12-3.13H12.34a3.14,3.14,0,0,0-3.12,3.13V40"></path><path class="cls-1" d="M36.54,13.81v14H10.63V14.61a1.59,1.59,0,0,1,.64-1.29l7.32-5.59a.58.58,0,0,1,.81.11.55.55,0,0,1,.12.35v5.62l8-6.08a.58.58,0,0,1,.81.11.55.55,0,0,1,.12.35v5.62Z"></path><path class="cls-2" d="M36.54,13.81v14H10.63V14.61a1.59,1.59,0,0,1,.64-1.29l7.32-5.59a.58.58,0,0,1,.81.11.55.55,0,0,1,.12.35v5.62l8-6.08a.58.58,0,0,1,.81.11.55.55,0,0,1,.12.35v5.62Z"></path><path class="cls-1" d="M27.72,27.83H17v-5a3.56,3.56,0,0,1,3.56-3.56h3.56a3.56,3.56,0,0,1,3.57,3.55h0Z"></path><path class="cls-2" d="M27.72,27.83H17v-5a3.56,3.56,0,0,1,3.56-3.56h3.56a3.56,3.56,0,0,1,3.57,3.55h0Z"></path><polygon class="cls-1" points="39.86 27.83 31.34 27.83 32.85 0.75 38.35 0.75 39.86 27.83"></polygon><polygon class="cls-2" points="39.86 27.83 31.34 27.83 32.85 0.75 38.35 0.75 39.86 27.83"></polygon></g></g></g></g></svg> 