<?xml version="1.0" encoding="UTF-8"?> <svg xmlns="http://www.w3.org/2000/svg" viewBox="0 0 53.5 59.15"><defs><style>.cls-1,.cls-2,.cls-3{fill:none;}.cls-1,.cls-3{stroke:#008ad1;stroke-linejoin:round;}.cls-1{stroke-width:1.5px;}.cls-3{stroke-width:1.5px;}</style></defs><g id="Layer_2" data-name="Layer 2"><g id="Layer_2-2" data-name="Layer 2"><g id="Layer_2-3" data-name="Layer 2"><g id="Layer_1-2" data-name="Layer 1-2"><path class="cls-1" d="M47.81,14.38a7,7,0,0,1-13.91,1.1,0,0,0,0,1,0-.05,8.38,8.38,0,0,0,1.24-2.12,8.87,8.87,0,0,0,.68-3.82l0-.05h0a7,7,0,0,1,12,5Z"></path><path class="cls-1" d="M52.75,31.06v3.62a1.52,1.52,0,0,1-1.52,1.51H42.3V31.56h0a9.44,9.44,0,0,0-4.1-7.81h7.24A7.31,7.31,0,0,1,52.75,31.06Z"></path><path class="cls-1" d="M19.6,15.45a7,7,0,1,1-1.94-6h0a2.62,2.62,0,0,0,0,.28v.17a10.52,10.52,0,0,0,.09,1.26.56.56,0,0,1,0,.07c0,.18.06.36.1.53s.13.53.21.79a4.4,4.4,0,0,0,.18.51c.06.18.13.33.2.49s.07.15.11.24a8.82,8.82,0,0,0,.59,1c.1.16.21.31.32.47Z"></path><path class="cls-1" d="M15.26,23.75a9.43,9.43,0,0,0-4.09,7.81v4.63H2.27A1.52,1.52,0,0,1,.75,34.68V31.06a7.31,7.31,0,0,1,7.31-7.31Z"></path><path class="cls-2" d="M21,16.87c.33.26.68.5,1.05.74A8.62,8.62,0,0,1,21,16.87Z"></path><path class="cls-2" d="M24.13,1.13a10.8,10.8,0,0,0-1.23.48A7.3,7.3,0,0,1,24.13,1.13Z"></path><path class="cls-2" d="M26.08.77A8.13,8.13,0,0,0,24.77,1,8,8,0,0,1,26.08.77Z"></path><path class="cls-2" d="M29.36,1.13A9.07,9.07,0,0,0,28.3.89,9.56,9.56,0,0,1,29.36,1.13Z"></path><path class="cls-2" d="M27.89.83c-.34,0-.69-.07-1-.08A9.1,9.1,0,0,1,27.89.83Z"></path><path class="cls-2" d="M26.85.75l-.77,0c.22,0,.44,0,.67,0Z"></path><path class="cls-2" d="M28.3.89,27.89.83Z"></path><path class="cls-2" d="M30.22,1.44c-.29-.12-.57-.21-.86-.31a8.57,8.57,0,0,1,1.5.61C30.65,1.63,30.44,1.54,30.22,1.44Z"></path><path class="cls-2" d="M22.62,17.94c.22.12.45.21.68.31h0C23,18.14,22.83,18.05,22.62,17.94Z"></path><path class="cls-2" d="M23.3,18.25c.22.09.45.18.68.25Z"></path><path class="cls-2" d="M24,18.5h0Z"></path><path class="cls-2" d="M24,18.51a9.65,9.65,0,0,0,2.16.4A9.59,9.59,0,0,1,24,18.51Z"></path><path class="cls-2" d="M26.16,18.91h0Z"></path><path class="cls-2" d="M35.86,9.83a9.1,9.1,0,0,1-9.09,9.11c-.17,0-.34,0-.51,0a9.08,9.08,0,0,0,7.64-3.48,8.38,8.38,0,0,0,1.24-2.12,8.87,8.87,0,0,0,.68-3.82,9.1,9.1,0,0,0-3.78-7,9.07,9.07,0,0,1,3.81,7C35.86,9.57,35.86,9.7,35.86,9.83Z"></path><path class="cls-3" d="M35.82,9.49a8.87,8.87,0,0,1-.68,3.82,8.38,8.38,0,0,1-1.24,2.12,9.11,9.11,0,0,1-10.64,2.81c-.22-.1-.43-.19-.64-.3s-.41-.21-.6-.33c-.37-.24-.72-.48-1.05-.74a.17.17,0,0,0-.08-.07l-.48-.43c-.13-.13-.26-.26-.39-.41s-.29-.34-.42-.51l-.13-.15c-.11-.16-.22-.31-.32-.47a8.82,8.82,0,0,1-.59-1c0-.09-.08-.16-.11-.24s-.14-.31-.2-.49a4.4,4.4,0,0,1-.18-.51c-.08-.26-.15-.52-.21-.79s-.07-.35-.1-.53a.56.56,0,0,0,0-.07,9.4,9.4,0,0,1-.09-1.31v0c0-.12,0-.25,0-.37a9,9,0,0,1,.08-.92.88.88,0,0,1,0-.16c.05-.27.11-.55.18-.82a7.92,7.92,0,0,1,.4-1.19l.21-.48A6.67,6.67,0,0,1,19.07,5a4.15,4.15,0,0,1,.27-.41l.13-.18.3-.38c.15-.18.3-.33.45-.5l.42-.4a.13.13,0,0,1,.06,0l.43-.37a8.47,8.47,0,0,1,1.19-.79l.49-.26.09,0a10.8,10.8,0,0,1,1.23-.48c.21-.06.42-.11.64-.15A8.13,8.13,0,0,1,26.08.77a9.23,9.23,0,0,1,3.28.36c.29.1.57.19.86.31s.43.19.64.3l.6.32h0l.57.38A9.1,9.1,0,0,1,35.82,9.49Z"></path><path class="cls-3" d="M17.66,9.74v0Z"></path><path class="cls-3" d="M17.75,11.17a10.52,10.52,0,0,1-.09-1.26A10.52,10.52,0,0,0,17.75,11.17Z"></path><path class="cls-3" d="M17.67,9.46a2.62,2.62,0,0,0,0,.28V9.45a7.19,7.19,0,0,1,.09-.91A9,9,0,0,0,17.67,9.46Z"></path><path class="cls-2" d="M42,37.42a2,2,0,0,1-1.65.88l0,0A2,2,0,0,0,42,37.42Z"></path><path class="cls-2" d="M42.3,36.3a1.91,1.91,0,0,1-.16.76A2.2,2.2,0,0,0,42.3,36.3Z"></path><path class="cls-1" d="M42.3,31.56h0V36.3a2.2,2.2,0,0,1-.16.76s0,0,0,0a3.54,3.54,0,0,1-.19.33v0a2,2,0,0,1-1.62.85H13.17a2,2,0,0,1-2-2V31.56a9.52,9.52,0,0,1,9.5-9.51H32.79a9.53,9.53,0,0,1,9.51,9.51Z"></path><path class="cls-2" d="M35.53,48.14l-5.23,3.8,2,6.14a.22.22,0,0,1-.13.27h0a.21.21,0,0,1-.19,0l-5.23-3.8-5.23,3.8a.23.23,0,0,1-.29,0,.21.21,0,0,1,0-.19l2-6.14L18,48.14a.19.19,0,0,1,0-.28h0a.19.19,0,0,1,.17-.09h6.46l2-6.15a.19.19,0,0,1,.24-.14h0a.2.2,0,0,1,.14.13l2,6.15h6.46a.21.21,0,0,1,.21.21.22.22,0,0,1-.09.17Z"></path><path class="cls-1" d="M35.53,48.14l-5.23,3.8,2,6.14a.22.22,0,0,1-.13.27h0a.21.21,0,0,1-.19,0l-5.23-3.8-5.23,3.8a.23.23,0,0,1-.29,0,.21.21,0,0,1,0-.19l2-6.14L18,48.14a.19.19,0,0,1,0-.28h0a.19.19,0,0,1,.17-.09h6.46l2-6.15a.19.19,0,0,1,.24-.14h0a.2.2,0,0,1,.14.13l2,6.15h6.46a.19.19,0,0,1,0,.38Z"></path><path class="cls-2" d="M16.85,48.54l-4,2.94,1.54,4.74a.18.18,0,0,1-.11.2h0a.17.17,0,0,1-.14,0l-4-2.93L6,56.4a.17.17,0,0,1-.23,0,.14.14,0,0,1,0-.15l1.54-4.74-4-2.94a.18.18,0,0,1,.13-.29h5L10,43.54a.17.17,0,0,1,.2-.11.2.2,0,0,1,.11.11l1.54,4.74h5a.16.16,0,0,1,.16.16.21.21,0,0,1-.07.13Z"></path><path class="cls-1" d="M16.85,48.54l-4,2.94,1.54,4.74a.18.18,0,0,1-.11.2h0a.17.17,0,0,1-.14,0l-4-2.93L6,56.4a.17.17,0,0,1-.23,0,.14.14,0,0,1,0-.15l1.54-4.74-4-2.94a.18.18,0,0,1,.13-.29h5L10,43.54a.17.17,0,0,1,.2-.11.2.2,0,0,1,.11.11l1.54,4.74h5a.16.16,0,0,1,.16.16A.21.21,0,0,1,16.85,48.54Z"></path><path class="cls-2" d="M50.21,48.54l-4,2.94,1.54,4.74a.15.15,0,0,1-.09.19h0a.19.19,0,0,1-.15,0l-4-2.93-4,2.93a.16.16,0,0,1-.22,0,.19.19,0,0,1,0-.15l1.54-4.74-4-2.94A.18.18,0,0,1,37,48.3h5l1.54-4.74a.16.16,0,0,1,.21-.11.22.22,0,0,1,.1.11l1.54,4.74h5a.16.16,0,0,1,.16.16.2.2,0,0,1-.06.13Z"></path><path class="cls-1" d="M50.21,48.54l-4,2.94,1.54,4.74a.15.15,0,0,1-.09.19h0a.19.19,0,0,1-.15,0l-4-2.93-4,2.93a.16.16,0,0,1-.22,0,.19.19,0,0,1,0-.15l1.54-4.74-4-2.94A.18.18,0,0,1,37,48.3h5l1.54-4.74a.16.16,0,0,1,.21-.11.22.22,0,0,1,.1.11l1.54,4.74h5a.16.16,0,0,1,.16.16.16.16,0,0,1-.18.14A.13.13,0,0,1,50.21,48.54Z"></path></g></g></g></g></svg> 