<?xml version="1.0" encoding="UTF-8"?> <svg xmlns="http://www.w3.org/2000/svg" viewBox="0 0 53.5 54.49"><defs><style>.cls-1,.cls-2,.cls-4{fill:none;stroke:#008ad1;stroke-linejoin:round;}.cls-1,.cls-4{stroke-width:1.5px;}.cls-3{fill:#008ad1;}.cls-4{stroke-dasharray:1.85 1.85;}</style></defs><g id="Layer_2" data-name="Layer 2"><g id="Layer_2-2" data-name="Layer 2"><path class="cls-1" d="M52.75,11.67V40.32H.75V11.67A.68.68,0,0,1,1.42,11H8v8.08l10.5,6.07.07,0,10.59-6.11V11h22.9A.68.68,0,0,1,52.75,11.67Z"></path><rect class="cls-1" x="21.37" y="45.64" width="10.77" height="6.23"></rect><rect class="cls-1" x="18.12" y="51.87" width="17.25" height="1.87"></rect><path class="cls-1" d="M52.08,45.61H1.42a.68.68,0,0,1-.67-.67V40.27h52v4.67A.68.68,0,0,1,52.08,45.61Z"></path><path class="cls-2" d="M47.75,41.6a1,1,0,1,1-1,1A1,1,0,0,1,47.75,41.6Z"></path><polygon class="cls-1" points="18.52 12.93 18.52 25.15 8.02 19.08 8.02 6.87 15.18 11 18.52 12.93"></polygon><polygon class="cls-1" points="29.18 6.86 29.18 19.08 18.59 25.19 18.52 25.15 18.52 12.93 21.87 11 29.11 6.82 29.18 6.86"></polygon><polygon class="cls-1" points="29.11 6.82 21.87 11 18.52 12.93 15.18 11 8.02 6.87 8.02 6.86 18.59 0.75 29.11 6.82"></polygon><line class="cls-1" x1="13.26" y1="28.01" x2="26.09" y2="28.01"></line><line class="cls-1" x1="13.26" y1="30.66" x2="26.09" y2="30.66"></line><line class="cls-1" x1="13.26" y1="33.32" x2="26.09" y2="33.32"></line><path class="cls-1" d="M47.46,24.36a5.53,5.53,0,1,1-5.53-5.53h0A5.55,5.55,0,0,1,47.46,24.36Z"></path><path class="cls-3" d="M44.44,25.48a1.84,1.84,0,0,1-1.89,1.76V28h-1v-.76a2.38,2.38,0,0,1-2.1-1.37l.94-.4a1.76,1.76,0,0,0,1.6.84c.71,0,1.38-.25,1.38-.87s-.67-.72-1.41-.81C40.82,24.5,39.7,24.3,39.7,23c0-1.05.93-1.53,1.85-1.64v-.7h1v.7a2,2,0,0,1,1.66,1.09l-.87.44A1.71,1.71,0,0,0,42,22.26c-.67,0-1.27.2-1.27.76s.63.62,1.3.7C43.2,23.86,44.44,24.07,44.44,25.48Z"></path><line class="cls-1" x1="1.82" y1="53.74" x2="51.68" y2="53.74"></line><line class="cls-1" x1="16.7" y1="48.8" x2="15.7" y2="48.8"></line><line class="cls-4" x1="13.85" y1="48.8" x2="7.37" y2="48.8"></line><line class="cls-1" x1="6.44" y1="48.8" x2="5.44" y2="48.8"></line><line class="cls-1" x1="48.06" y1="48.8" x2="47.06" y2="48.8"></line><line class="cls-4" x1="45.21" y1="48.8" x2="38.73" y2="48.8"></line><line class="cls-1" x1="37.8" y1="48.8" x2="36.8" y2="48.8"></line></g></g></svg> 