<?xml version="1.0" encoding="UTF-8"?> <svg xmlns="http://www.w3.org/2000/svg" viewBox="0 0 57.69 71.5"><defs><style>.cls-1,.cls-2{fill:none;stroke:#008ad1;stroke-linejoin:round;}.cls-1{stroke-width:0.75px;stroke-dasharray:1 1;}.cls-2{stroke-width:1.5px;}</style></defs><g id="Layer_2" data-name="Layer 2"><g id="Layer_1-2" data-name="Layer 1"><polygon class="cls-1" points="38.52 42.99 38.52 50.8 31.75 54.7 31.75 46.9 38.52 42.99"></polygon><polygon class="cls-1" points="38.52 42.99 31.75 46.9 24.99 42.99 31.75 39.09 38.52 42.99"></polygon><polygon class="cls-1" points="31.75 46.9 31.75 54.7 24.99 50.8 24.99 42.99 31.75 46.9"></polygon><path class="cls-2" d="M35.86,15.37a4.08,4.08,0,0,1-2.71,3.85,4.09,4.09,0,0,1-2.76,0,4.09,4.09,0,1,1,5.47-3.85Z"></path><polyline class="cls-2" points="33.15 19.22 39.35 33.76 46.7 51.51"></polyline><polyline class="cls-2" points="30.39 19.22 24.19 33.76 16.84 51.51"></polyline><polyline class="cls-2" points="45.79 33.76 38.35 33.76 33.22 33.76"></polyline><polyline class="cls-2" points="30.32 33.76 25.19 33.76 18.47 33.76"></polyline><rect class="cls-2" x="30.32" y="30.54" width="2.89" height="6.43"></rect><rect class="cls-2" x="30.16" y="0.75" width="3.18" height="7.08"></rect><line class="cls-2" x1="31.77" y1="7.83" x2="31.77" y2="11.28"></line><path class="cls-2" d="M46.61,63.67A3.5,3.5,0,0,1,50.3,67"></path><path class="cls-2" d="M56.94,37.15V61.54c0,5.09-4.62,9.21-10.33,9.21V63.67H24.66l-1-2.53-2.37,2.53H11.08C5.38,63.67.75,59.55.75,54.46V30.07c0-5.09,4.63-9.21,10.33-9.21v7.08H46.61C52.32,27.94,56.94,32.07,56.94,37.15Z"></path><path class="cls-2" d="M11.08,27.94V50.51a4.9,4.9,0,0,0-5.16,4.6"></path></g></g></svg> 