<?xml version="1.0" encoding="UTF-8"?> <svg xmlns="http://www.w3.org/2000/svg" viewBox="0 0 57.15 56.87"><defs><style>.cls-1{fill:none;stroke:#008ad1;stroke-linejoin:round;stroke-width:1.5px;}.cls-2{fill:#028ad1;}.cls-3{fill:#008ad1;}</style></defs><g id="Layer_2" data-name="Layer 2"><g id="Layer_1-2" data-name="Layer 1"><path class="cls-1" d="M50.21,6.18H47.64V9.27a4.64,4.64,0,0,1-9.28,0V6.18H33.21V9.27a4.64,4.64,0,1,1-9.27,0V6.18H18.78V9.27a4.64,4.64,0,1,1-9.27,0V6.18H6.93A6.19,6.19,0,0,0,.75,12.37V49.94a6.18,6.18,0,0,0,6.18,6.18H50.21a6.19,6.19,0,0,0,6.19-6.18V12.37A6.2,6.2,0,0,0,50.21,6.18Zm2.06,43.76A2.06,2.06,0,0,1,50.21,52H6.93a2.07,2.07,0,0,1-2.06-2.06V20.61a2.06,2.06,0,0,1,2.06-2.06H50.21a2.06,2.06,0,0,1,2.06,2.06V49.94Z"></path><path class="cls-2" d="M14.15,12.37a3.09,3.09,0,0,0,3.09-3.1V3.09a3.09,3.09,0,1,0-6.18,0V9.27A3.09,3.09,0,0,0,14.15,12.37Z"></path><path class="cls-2" d="M28.57,12.37a3.09,3.09,0,0,0,3.09-3.1V3.09a3.09,3.09,0,0,0-6.18,0V9.27A3.1,3.1,0,0,0,28.57,12.37Z"></path><path class="cls-2" d="M43,12.37a3.09,3.09,0,0,0,3.09-3.1V3.09a3.09,3.09,0,0,0-6.18,0V9.27A3.09,3.09,0,0,0,43,12.37Z"></path><path class="cls-3" d="M14.94,22.89H11.49a1.72,1.72,0,0,0-1.72,1.72v3.45a1.72,1.72,0,0,0,1.72,1.73h3.45a1.73,1.73,0,0,0,1.73-1.73V24.61A1.73,1.73,0,0,0,14.94,22.89Z"></path><path class="cls-3" d="M25.18,22.89H21.73A1.73,1.73,0,0,0,20,24.61v3.45a1.73,1.73,0,0,0,1.73,1.73h3.45a1.72,1.72,0,0,0,1.72-1.73V24.61A1.72,1.72,0,0,0,25.18,22.89Z"></path><path class="cls-3" d="M35.42,22.89H32a1.73,1.73,0,0,0-1.73,1.72v3.45A1.73,1.73,0,0,0,32,29.79h3.45a1.72,1.72,0,0,0,1.72-1.73V24.61A1.72,1.72,0,0,0,35.42,22.89Z"></path><path class="cls-3" d="M45.66,22.89H42.21a1.73,1.73,0,0,0-1.73,1.72v3.45a1.73,1.73,0,0,0,1.73,1.73h3.45a1.72,1.72,0,0,0,1.72-1.73V24.61A1.72,1.72,0,0,0,45.66,22.89Z"></path><path class="cls-3" d="M14.94,31.82H11.49a1.73,1.73,0,0,0-1.72,1.73V37a1.72,1.72,0,0,0,1.72,1.72h3.45A1.73,1.73,0,0,0,16.67,37V33.55A1.73,1.73,0,0,0,14.94,31.82Z"></path><path class="cls-3" d="M25.18,31.82H21.73A1.74,1.74,0,0,0,20,33.55V37a1.73,1.73,0,0,0,1.73,1.72h3.45A1.72,1.72,0,0,0,26.9,37V33.55A1.72,1.72,0,0,0,25.18,31.82Z"></path><path class="cls-3" d="M35.42,31.82H32a1.74,1.74,0,0,0-1.73,1.73V37A1.73,1.73,0,0,0,32,38.72h3.45A1.72,1.72,0,0,0,37.14,37V33.55A1.72,1.72,0,0,0,35.42,31.82Z"></path><path class="cls-3" d="M45.66,31.82H42.21a1.74,1.74,0,0,0-1.73,1.73V37a1.73,1.73,0,0,0,1.73,1.72h3.45A1.72,1.72,0,0,0,47.38,37V33.55A1.72,1.72,0,0,0,45.66,31.82Z"></path><path class="cls-3" d="M14.94,40.76H11.49a1.72,1.72,0,0,0-1.72,1.72v3.45a1.73,1.73,0,0,0,1.72,1.73h3.45a1.73,1.73,0,0,0,1.73-1.73V42.48A1.73,1.73,0,0,0,14.94,40.76Z"></path><path class="cls-3" d="M25.18,40.76H21.73A1.73,1.73,0,0,0,20,42.48v3.45a1.74,1.74,0,0,0,1.73,1.73h3.45a1.72,1.72,0,0,0,1.72-1.73V42.48A1.72,1.72,0,0,0,25.18,40.76Z"></path><path class="cls-3" d="M35.42,40.76H32a1.73,1.73,0,0,0-1.73,1.72v3.45A1.74,1.74,0,0,0,32,47.66h3.45a1.72,1.72,0,0,0,1.72-1.73V42.48A1.72,1.72,0,0,0,35.42,40.76Z"></path></g></g></svg> 