<?xml version="1.0" encoding="UTF-8"?> <svg xmlns="http://www.w3.org/2000/svg" id="Layer_1" data-name="Layer 1" viewBox="0 0 348.58 92.27"><defs><style>.cls-1{fill:#565759;}.cls-2{fill:#0095da;}.cls-2,.cls-3,.cls-4,.cls-5{fill-rule:evenodd;}.cls-3{fill:#00679e;}.cls-4{fill:#f15a22;}.cls-5{fill:#df3c2a;}</style></defs><title>3erp-vector</title><path class="cls-1" d="M311.4,468.21a1.3,1.3,0,1,0,1.3,1.3A1.3,1.3,0,0,0,311.4,468.21Zm-14.57-1.42h2.59v6.75h1.75v-6.75h2.61v-1.39h-7v1.39Zm48.79,6.75h1.74v-8.16h-1.74v8.16ZM338,466a2.49,2.49,0,0,0-1,1.62,12.12,12.12,0,0,0-.13,2.17v3.74h1.69v-3.37h4.85V468.8h-4.85a2.08,2.08,0,0,1,.48-1.47,2.14,2.14,0,0,1,1.65-.57h2.72v-1.38h-2.58A5.12,5.12,0,0,0,338,466Zm-17.87.25a4.58,4.58,0,0,0-1,3.36,4,4,0,0,0,1.05,3,3.78,3.78,0,0,0,2.72.91h2.86v-1.38H323a2,2,0,0,1-1.39-.42,2.1,2.1,0,0,1-.54-1.63h4.72v-1.39H321.1a2,2,0,0,1,.49-1.49,1.91,1.91,0,0,1,1.4-.48h2.79v-1.38H323A3.86,3.86,0,0,0,320.17,466.25Zm9.21-.25a2.49,2.49,0,0,0-1,1.62,12.26,12.26,0,0,0-.13,2.17v3.74h1.69v-3.37h4.85V468.8h-4.85a2.08,2.08,0,0,1,.48-1.47,2.14,2.14,0,0,1,1.65-.57h2.72v-1.38h-2.58A5.13,5.13,0,0,0,329.39,466Zm-36,5.26L290,465.37h-2.14v8.16h1.65v-6.2l3.51,6.2H295v-8.16h-1.6v5.89Zm-13.63-5a4.57,4.57,0,0,0-1,3.36,4,4,0,0,0,1.05,3,3.78,3.78,0,0,0,2.72.91h2.86v-1.38h-2.79a2,2,0,0,1-1.39-.42,2.11,2.11,0,0,1-.54-1.63h4.72v-1.39h-4.68a2,2,0,0,1,.49-1.49,1.91,1.91,0,0,1,1.4-.48h2.79v-1.38h-2.81A3.86,3.86,0,0,0,279.75,466.25Zm-23.19,0a4.57,4.57,0,0,0-1,3.36,4,4,0,0,0,1.05,3,3.79,3.79,0,0,0,2.72.91h2.86v-1.38h-2.79a2,2,0,0,1-1.39-.42,2.11,2.11,0,0,1-.54-1.63h4.72v-1.39h-4.68a2,2,0,0,1,.49-1.49,1.91,1.91,0,0,1,1.4-.48h2.79v-1.38h-2.81A3.86,3.86,0,0,0,256.56,466.25Zm-25.29,0a4.57,4.57,0,0,0-1,3.36,4,4,0,0,0,1.05,3,3.78,3.78,0,0,0,2.72.91h2.86v-1.38h-2.79a2,2,0,0,1-1.39-.42,2.11,2.11,0,0,1-.54-1.63h4.72v-1.39H232.2a2,2,0,0,1,.49-1.49,1.9,1.9,0,0,1,1.4-.48h2.79v-1.38h-2.81A3.86,3.86,0,0,0,231.27,466.25ZM248,466.6a4.88,4.88,0,0,0-.79,3,4,4,0,0,0,1.05,3,3.79,3.79,0,0,0,2.72.91h2.85v-1.38H251a1.82,1.82,0,0,1-1.73-.82,3,3,0,0,1-.29-1.49c0-.1,0-0.24,0-0.4a3.92,3.92,0,0,1,.36-1.88,1.74,1.74,0,0,1,1.65-.84h2.79v-1.36H251A3.56,3.56,0,0,0,248,466.6Zm18.47,5a2.36,2.36,0,0,1-.27-1.29v-4.95h-1.65v4.87a3.7,3.7,0,0,0,.67,2.47,3.11,3.11,0,0,0,2.45.83H270v-1.31h-2A1.81,1.81,0,0,1,266.43,471.6Zm7.28,0a2.36,2.36,0,0,1-.27-1.29v-4.95h-1.65v4.87a3.69,3.69,0,0,0,.67,2.47,3.11,3.11,0,0,0,2.45.83h2.43v-1.31h-2A1.81,1.81,0,0,1,273.71,471.6Zm-28-6.23h-1.93l-1.66,2.6-1.67-2.6h-2l2.72,4.08-2.81,4.08h2l1.81-2.84,1.72,2.84h2l-2.77-4.19Zm166.5,1.23a4.88,4.88,0,0,0-.79,3,4,4,0,0,0,1.05,3,3.78,3.78,0,0,0,2.72.91h2.85v-1.38h-2.79a1.82,1.82,0,0,1-1.73-.82,3,3,0,0,1-.29-1.49c0-.1,0-0.24,0-0.4a3.91,3.91,0,0,1,.36-1.88,1.74,1.74,0,0,1,1.65-.84h2.79v-1.36h-2.81A3.56,3.56,0,0,0,412.25,466.6Zm33.78-.73a4.66,4.66,0,0,0-2.69-.67,5.51,5.51,0,0,0-1.85.27,2.93,2.93,0,0,0-1.55,1.19,5.17,5.17,0,0,0-.63,2.76,4.84,4.84,0,0,0,.77,2.9,3.14,3.14,0,0,0,1.67,1.17,5.5,5.5,0,0,0,1.6.21,4.16,4.16,0,0,0,2.8-.88,4.22,4.22,0,0,0,1.24-3.38,6.87,6.87,0,0,0-.23-2A3,3,0,0,0,446,465.87Zm-0.91,5.69a2,2,0,0,1-1.77.79,2,2,0,0,1-1.91-1,4.41,4.41,0,0,1-.33-2,3.3,3.3,0,0,1,.6-2.14,2,2,0,0,1,1.64-.71,2.06,2.06,0,0,1,1.59.58,3.36,3.36,0,0,1,.64,2.31A3.79,3.79,0,0,1,445.12,471.56Zm-94.76-5a4.88,4.88,0,0,0-.79,3,4,4,0,0,0,1.05,3,3.78,3.78,0,0,0,2.72.91h2.85v-1.38H353.4a1.82,1.82,0,0,1-1.73-.82,3,3,0,0,1-.29-1.49c0-.1,0-0.24,0-0.4a3.91,3.91,0,0,1,.36-1.88,1.74,1.74,0,0,1,1.65-.84h2.79v-1.36h-2.81A3.56,3.56,0,0,0,350.35,466.6Zm85.21,4.67-3.35-5.89h-2.14v8.16h1.65v-6.2l3.51,6.2h1.93v-8.16h-1.6v5.89Zm31.93-3.7a1.74,1.74,0,0,1,1.65-.84h2.79v-1.36h-2.81a3.56,3.56,0,0,0-3,1.23,4.88,4.88,0,0,0-.8,3,4,4,0,0,0,1.05,3,3.78,3.78,0,0,0,2.72.91h2.85v-1.38h-2.79a1.83,1.83,0,0,1-1.73-.82,3,3,0,0,1-.29-1.49c0-.1,0-0.24,0-0.4A3.92,3.92,0,0,1,467.49,467.57Zm-6.14,6h1.74v-8.16h-1.74v8.16Zm-7.25-1.81L452,465.37h-2.48v8.16h1.53v-6.42l2.18,6.42H455l2.11-6.36v6.36h1.5v-8.16h-2.44Zm-27.56-5.85a4.66,4.66,0,0,0-2.69-.67,5.51,5.51,0,0,0-1.85.27,2.94,2.94,0,0,0-1.55,1.19,5.18,5.18,0,0,0-.63,2.76,4.85,4.85,0,0,0,.77,2.9,3.14,3.14,0,0,0,1.67,1.17,5.5,5.5,0,0,0,1.6.21,4.16,4.16,0,0,0,2.8-.88,4.22,4.22,0,0,0,1.24-3.38,6.91,6.91,0,0,0-.23-2A3,3,0,0,0,426.55,465.87Zm-0.91,5.69a2,2,0,0,1-1.77.79,2,2,0,0,1-1.91-1,4.39,4.39,0,0,1-.33-2,3.3,3.3,0,0,1,.6-2.14,2,2,0,0,1,1.64-.71,2.07,2.07,0,0,1,1.59.58,3.36,3.36,0,0,1,.64,2.31A3.78,3.78,0,0,1,425.63,471.56Zm-21.79-5.31a4.58,4.58,0,0,0-1,3.36,4,4,0,0,0,1.05,3,3.78,3.78,0,0,0,2.72.91h2.86v-1.38h-2.79a2,2,0,0,1-1.39-.42,2.1,2.1,0,0,1-.54-1.63h4.72v-1.39h-4.68a2,2,0,0,1,.49-1.49,1.91,1.91,0,0,1,1.4-.48h2.79v-1.38h-2.81A3.86,3.86,0,0,0,403.84,466.25Zm-40.42,0a4.58,4.58,0,0,0-1,3.36,4,4,0,0,0,1.05,3,3.78,3.78,0,0,0,2.72.91H369v-1.38h-2.79a2,2,0,0,1-1.39-.42,2.11,2.11,0,0,1-.54-1.63H369v-1.39h-4.68a2,2,0,0,1,.49-1.49,1.91,1.91,0,0,1,1.4-.48H369v-1.38h-2.81A3.86,3.86,0,0,0,363.42,466.25Zm-5,7.29h1.74v-8.16h-1.74v8.16Zm18.59-2.27-3.35-5.89h-2.14v8.16h1.65v-6.2l3.51,6.2h1.93v-8.16h-1.6v5.89Zm3.44-4.48h2.59v6.75h1.75v-6.75h2.61v-1.39h-7v1.39Zm14.57,1.42a1.3,1.3,0,1,0,1.3,1.3A1.3,1.3,0,0,0,395.06,468.21Z" transform="translate(-123.35 -392.81)"></path><path class="cls-1" d="M298.56,413.92a15,15,0,0,0-6.49,4.13,16.35,16.35,0,0,0-3.57,6.82,41.4,41.4,0,0,0,0,18.9,16.35,16.35,0,0,0,3.57,6.82,15.09,15.09,0,0,0,6.49,4.13,30.68,30.68,0,0,0,9.88,1.39H343v-8.73H308.43a21,21,0,0,1-5.34-.59,8.73,8.73,0,0,1-3.48-1.73,7.19,7.19,0,0,1-2-2.82,13.82,13.82,0,0,1-.9-3.84H342.2v-8.16H296.71a14.06,14.06,0,0,1,.9-3.86,7.38,7.38,0,0,1,2-2.84,8.88,8.88,0,0,1,3.48-1.75,20.58,20.58,0,0,1,5.34-.6H343v-8.66H308.43A30.7,30.7,0,0,0,298.56,413.92Zm-34,15.67,14.93-10.08,0-7h-48v8.22h32.72l-25.49,17.14H264.4a10,10,0,0,1,4.22.79,4.69,4.69,0,0,1,2.86,4.44,4.36,4.36,0,0,1-.64,2.37,4.62,4.62,0,0,1-2.22,1.74,11.32,11.32,0,0,1-4.22.67H231.53v8.22h31.92a30.93,30.93,0,0,0,7.74-.87,15,15,0,0,0,5.28-2.44,9.73,9.73,0,0,0,3-3.73,11.24,11.24,0,0,0,1-4.75C280.52,437.32,277.28,429.3,264.59,429.59Zm140.77,3.94a11.58,11.58,0,0,0,2.34-7.43,12.15,12.15,0,0,0-8.08-12,24.45,24.45,0,0,0-9.25-1.58H352.52v43.58h9.11V441.78h28.54a10.86,10.86,0,0,1,3.57.52,5.6,5.6,0,0,1,2.18,1.34,4.87,4.87,0,0,1,1.09,1.79,5.72,5.72,0,0,1,.3,1.89v8.79h9.43v-8.6a9.52,9.52,0,0,0-1.9-6,12.06,12.06,0,0,0-6.06-3.91A12.64,12.64,0,0,0,405.36,433.54ZM398,429.35a5.94,5.94,0,0,1-3.46,3.71,9.1,9.1,0,0,1-3.52.63H361.63V420.56h29.44a9.15,9.15,0,0,1,3.52.61,6,6,0,0,1,2.25,1.59,6.06,6.06,0,0,1,1.21,2.11,7,7,0,0,1,.35,2.24A6.88,6.88,0,0,1,398,429.35Zm72.86-7.82a12.85,12.85,0,0,0-3.16-4.65,14.72,14.72,0,0,0-5.42-3.17,23.66,23.66,0,0,0-7.79-1.18H416.75v43.58h9.11V441.84h28.67a23.93,23.93,0,0,0,7.79-1.19,14.77,14.77,0,0,0,5.42-3.21,12.92,12.92,0,0,0,3.16-4.69,15.53,15.53,0,0,0,1-5.63A15.29,15.29,0,0,0,470.91,421.54Zm-8.85,7.87a6.42,6.42,0,0,1-1.25,2.15,6.2,6.2,0,0,1-2.29,1.62,9.09,9.09,0,0,1-3.54.64H425.86V420.56H455a9,9,0,0,1,3.5.64,6.36,6.36,0,0,1,2.3,1.63,6.61,6.61,0,0,1,1.65,4.37A6.73,6.73,0,0,1,462.06,429.41Z" transform="translate(-123.35 -392.81)"></path><path class="cls-2" d="M158.77,485.08l35.42-20.13V446.6l-51.79,29.59Zm21.48-65.37-56.9,32.5v12.73l5.79,3.29L180.25,439l13.94,7.56,19.25-8.89Z" transform="translate(-123.35 -392.81)"></path><polygon class="cls-3" points="56.9 46.23 70.83 53.79 90.08 44.9 56.9 26.89 56.9 46.23"></polygon><polygon class="cls-4" points="0 24.54 0 43.88 42.96 19.33 56.9 26.89 76.15 18.01 42.96 0 0 24.54"></polygon><polygon class="cls-5" points="42.96 19.33 56.9 26.89 76.15 18.01 42.96 0 42.96 19.33"></polygon></svg> 