<?xml version="1.0" encoding="UTF-8"?> <svg xmlns="http://www.w3.org/2000/svg" id="Layer_1" data-name="Layer 1" viewBox="0 0 60.08 53.82"><defs><style>.cls-1{fill:#008ad1;}</style></defs><title>3</title><path class="cls-1" d="M289.38,102.79a1.06,1.06,0,0,0,.7-0.26l4.28-3.68A1.07,1.07,0,1,0,293,97.23l-2.23,1.92a24.62,24.62,0,0,1,48.44,1.77,1.07,1.07,0,0,0,1.06.92h0.15a1.07,1.07,0,0,0,.91-1.21,26.76,26.76,0,0,0-52.73-1.5l-1.92-2.23A1.07,1.07,0,0,0,285,98.29l3.55,4.13A1.07,1.07,0,0,0,289.38,102.79Z" transform="translate(-284.77 -77.61)"></path><path class="cls-1" d="M344.59,110.75L341,106.63h0a1,1,0,0,0-.22-0.17,1,1,0,0,0-1.28.06l-4.28,3.68a1.07,1.07,0,0,0,1.39,1.62l2.23-1.92a24.62,24.62,0,0,1-48.44-1.77,1.07,1.07,0,0,0-2.12.3,26.76,26.76,0,0,0,52.73,1.5l1.92,2.23A1.07,1.07,0,0,0,344.59,110.75Z" transform="translate(-284.77 -77.61)"></path><path class="cls-1" d="M315.59,101.12V96.34a1,1,0,0,0-2.06,0v4.94a3.48,3.48,0,0,0-2,2.14h-8.31a1,1,0,1,0,0,2.06h8.26a3.5,3.5,0,0,0,6.86-1A3.48,3.48,0,0,0,315.59,101.12Z" transform="translate(-284.77 -77.61)"></path><path class="cls-1" d="M331.86,94.68l0,0h0a19.84,19.84,0,0,0-7.12-7.12l0,0-0.06,0h0a19.61,19.61,0,0,0-19.56,0l-0.06,0-0.05,0h0a19.85,19.85,0,0,0-7.12,7.12l0,0,0,0.06h0a19.61,19.61,0,0,0,0,19.56l0,0.06,0.06,0.08a19.84,19.84,0,0,0,7.11,7.09l0,0,0.08,0a19.61,19.61,0,0,0,19.53,0h0l0.12-.07h0a19.84,19.84,0,0,0,7.1-7.09h0l0.05-.07,0-.06h0a19.61,19.61,0,0,0,0-19.56A0.24,0.24,0,0,0,331.86,94.68Zm-1.38,10.88h1.91a17.39,17.39,0,0,1-1.84,6.87l-1.66-1a1,1,0,0,0-1,1.79l1.65,1a17.87,17.87,0,0,1-5,5l-1-1.65a1,1,0,1,0-1.79,1l1,1.66a17.38,17.38,0,0,1-6.87,1.84v-1.92a1,1,0,1,0-2.06,0v1.92a17.38,17.38,0,0,1-6.87-1.84l1-1.66a1,1,0,0,0-.38-1.41,1,1,0,0,0-1.41.38l-1,1.65a17.64,17.64,0,0,1-5-4.93l-0.06-.09,1.66-1a1,1,0,1,0-1-1.79l-1.65,1a17.39,17.39,0,0,1-1.84-6.87h1.91a1,1,0,1,0,0-2.06h-1.91a17.39,17.39,0,0,1,1.84-6.87l1.65,1a1,1,0,0,0,1-1.79l-1.65-1a17.87,17.87,0,0,1,5-5l1,1.65a1,1,0,0,0,1.79-1l-1-1.65a17.39,17.39,0,0,1,6.87-1.84v1.91a1,1,0,0,0,2.06,0V86.93a17.39,17.39,0,0,1,6.87,1.84l-1,1.65a1,1,0,1,0,1.79,1l1-1.65,0.64,0.44a17.66,17.66,0,0,1,4.38,4.59l-1.65,1a1,1,0,1,0,1,1.79l1.65-1a17.39,17.39,0,0,1,1.84,6.87h-1.91A1,1,0,0,0,330.48,105.55Z" transform="translate(-284.77 -77.61)"></path></svg> 