<?xml version="1.0" encoding="UTF-8"?> <svg xmlns="http://www.w3.org/2000/svg" id="Layer_1" data-name="Layer 1" viewBox="0 0 75.34 38"><defs><style>.cls-1{fill:#008ad1;}</style></defs><title>5</title><path class="cls-1" d="M601.4,90.4a1,1,0,0,0-1-1h0l-22.33.11v-3a1,1,0,0,0-1-1H555.78a1,1,0,0,0-1,1v3.14l-10.71.05H528.2a1,1,0,0,0-1,1L526.62,109a1,1,0,0,0,.12.51l7.16,13.48a1,1,0,0,0,.9.54h2.67a1,1,0,0,0,1-1v-7.34h1.23a1,1,0,0,0,0-2h-1.23v-6.92a1,1,0,0,0-.6-0.92l-2.21-1v-3.1h8.1a1,1,0,0,0,.29,0h10.68c0,0.4,0,.9,0,1.56a0.94,0.94,0,0,0,0,.11v1.43l-2.21,1a1,1,0,0,0-.6.92v6.88h-1.54a1,1,0,0,0,0,2H552v7.38a1,1,0,0,0,1,1h2.67a1,1,0,0,0,.9-0.54l7.16-13.48a1,1,0,0,0,.12-0.51l-0.16-5.25,13.39,0a1,1,0,0,0,1-1V101.2H601a1,1,0,0,0,1-1.07Zm-44.63,11.33c0-.62,0-1.16,0-1.35a1,1,0,0,0,0-.2V87.55H576v14.16Zm-15.89-2.6V96.08a1,1,0,1,0-2,0v3.06h-4.2a1,1,0,0,0-1,1v4.77a1,1,0,0,0,.6.92l2.21,1v14.61h-1l-6.75-12.7,0.52-17h14.88l10.63-.05v7.47h-3.15v-3.1a1,1,0,1,0-2,0v3.1h-3.31v-3.1a1,1,0,1,0-2,0v3.07l-0.13,0h-3.18Zm20.9,9.66L555,121.49h-1V106.88l2.21-1a1,1,0,0,0,.6-0.92v-1.2h4.83Zm35.74-9.62v-3.1a1,1,0,1,0-2,0v3.1h-3.31v-3.1a1,1,0,1,0-2,0v3.1h-3.31v-3.1a1,1,0,1,0-2,0v3.1h-3.31v-3.1a1,1,0,1,0-2,0v3.1h-1.43V91.59l21.37-.11,0.44,7.69h-2.36Z" transform="translate(-526.62 -85.52)"></path><path class="cls-1" d="M546.85,113.1h-3.57a1,1,0,0,0,0,2h3.57A1,1,0,0,0,546.85,113.1Z" transform="translate(-526.62 -85.52)"></path></svg> 