<svg xmlns="http://www.w3.org/2000/svg" viewBox="0 0 44.28 52.07"><defs><style>.cls-1{fill:none;stroke:#008ad1;stroke-linejoin:round;stroke-width:1.5px;}.cls-2{fill:#008ad1;}</style></defs><g id="Layer_2" data-name="Layer 2"><g id="Layer_1-2" data-name="Layer 1"><path class="cls-1" d="M37.26,36.63c.16,1.11.37,2.45.62,3.89a34.65,34.65,0,0,0-7.79,3.34,33.43,33.43,0,0,0-9,7.46c.1-3.78,0-10.08-6.9-8.14a27.76,27.76,0,0,1-4.82,1.35c-2.16.33-3.3-.87-3.46-2.11-.16-1,0-1.3-.11-2.27S4.39,39,4.28,38.2a1.6,1.6,0,0,1,.55-1.41A1.38,1.38,0,0,1,3.15,35.6c-.17-1.3,1-1.57.76-2.76S1.09,32.3.76,29.91c-.1-.92.49-1,2.22-3.35s2.71-2.66,1.74-9.37S9.48,2.68,21.07,1,42,6.47,43.37,16.32,36.5,31.27,37.26,36.63Z"/><path class="cls-2" d="M26.79,19.66,25.3,19.1a7.43,7.43,0,0,0-.08-1.88l1.45-.67a.75.75,0,0,0,.37-1l-1-2.22A.74.74,0,0,0,25,13l-1.45.66a7.26,7.26,0,0,0-1.38-1.28l.55-1.49a.75.75,0,0,0-.44-1L20,9a.75.75,0,0,0-1,.45L18.5,11a7,7,0,0,0-1.88.07L16,9.6a.75.75,0,0,0-1-.37l-2.22,1a.75.75,0,0,0-.37,1L13,12.69a7.32,7.32,0,0,0-1.28,1.39l-1.49-.56a.76.76,0,0,0-1,.45l-.85,2.28a.76.76,0,0,0,.45,1l1.49.55a7.07,7.07,0,0,0,.07,1.89L9,20.32a.75.75,0,0,0-.37,1l1,2.21a.75.75,0,0,0,1,.37l1.44-.66a7.32,7.32,0,0,0,1.39,1.28L12.92,26a.76.76,0,0,0,.45,1l2.28.85a.76.76,0,0,0,1-.45l.55-1.49a7.07,7.07,0,0,0,1.89-.07l.66,1.45a.75.75,0,0,0,1,.37l2.21-1a.75.75,0,0,0,.37-1l-.66-1.45a7.26,7.26,0,0,0,1.28-1.38l1.49.55a.75.75,0,0,0,1-.44l.85-2.29A.74.74,0,0,0,26.79,19.66ZM19.49,22a4,4,0,1,1,2-5.26A4,4,0,0,1,19.49,22Z"/><path class="cls-2" d="M37.93,18.61a.43.43,0,0,0,.41-.45l-.07-1.4a.43.43,0,0,0-.45-.41l-.91,0a4.22,4.22,0,0,0-.47-1l.62-.68a.43.43,0,0,0,0-.61l-1-.94a.43.43,0,0,0-.61,0l-.61.68a4.16,4.16,0,0,0-1-.37l0-.91a.42.42,0,0,0-.45-.41l-1.4.06a.44.44,0,0,0-.41.46l0,.91a4.19,4.19,0,0,0-1,.46l-.68-.61a.43.43,0,0,0-.61,0l-.94,1a.43.43,0,0,0,0,.61l.67.61a4.41,4.41,0,0,0-.36,1l-.91.05a.44.44,0,0,0-.42.45l.07,1.4a.44.44,0,0,0,.46.41l.91-.05a4.19,4.19,0,0,0,.46,1l-.61.68a.43.43,0,0,0,0,.61l1,.94a.44.44,0,0,0,.62,0l.61-.68a4,4,0,0,0,1,.37l0,.91a.44.44,0,0,0,.46.41l1.39-.07a.44.44,0,0,0,.42-.45l-.05-.91a3.85,3.85,0,0,0,1-.47l.68.62a.43.43,0,0,0,.61,0l.94-1a.43.43,0,0,0,0-.61l-.68-.61a4.43,4.43,0,0,0,.37-1Zm-5,1.4a2.28,2.28,0,1,1,2.17-2.39A2.28,2.28,0,0,1,32.93,20Z"/><path class="cls-2" d="M22.67,8.94a.38.38,0,0,0,.39.35l.77,0a3.5,3.5,0,0,0,.39.83l-.52.57a.38.38,0,0,0,0,.52l.87.79a.37.37,0,0,0,.52,0l.52-.58a3.28,3.28,0,0,0,.86.31l0,.77a.36.36,0,0,0,.38.35l1.18-.06a.37.37,0,0,0,.35-.38l0-.77a3.94,3.94,0,0,0,.83-.39l.57.52a.38.38,0,0,0,.52,0l.79-.87a.37.37,0,0,0,0-.52l-.57-.52a3.65,3.65,0,0,0,.3-.86l.78,0A.36.36,0,0,0,32,8.49L31.9,7.31A.38.38,0,0,0,31.51,7l-.77,0a3.94,3.94,0,0,0-.39-.83l.52-.57a.38.38,0,0,0,0-.52L30,4.29a.37.37,0,0,0-.52,0l-.52.57a3.65,3.65,0,0,0-.86-.3l0-.78a.36.36,0,0,0-.38-.34l-1.18,0a.38.38,0,0,0-.35.39l0,.77a3.5,3.5,0,0,0-.83.39l-.57-.52a.37.37,0,0,0-.52,0l-.79.87a.37.37,0,0,0,0,.52l.57.52a3.65,3.65,0,0,0-.3.86l-.78,0a.36.36,0,0,0-.34.38ZM27.19,6.2a1.93,1.93,0,1,1-1.83,2A1.93,1.93,0,0,1,27.19,6.2Z"/></g></g></svg>