<svg xmlns="http://www.w3.org/2000/svg" viewBox="0 0 54.19 52.72"><defs><style>.cls-1{fill:none;stroke:#008ad1;stroke-linejoin:round;stroke-width:1.5px;}</style></defs><g id="Layer_2" data-name="Layer 2"><g id="Layer_1-2" data-name="Layer 1"><path class="cls-1" d="M53.44,16.07a7.66,7.66,0,0,1-4.73,6.66,7.88,7.88,0,0,1-8.82-1.24c-1.42-1.17-2.82-2.34-4.25-3.49-2.24-1.81-4.59-1.58-7-.28a14.58,14.58,0,0,0-1.75,1.19,4.6,4.6,0,0,1-5.09.57,4.37,4.37,0,0,1-2.56-4.22,4.37,4.37,0,0,1,2.38-4,4.51,4.51,0,0,1,4.84.19c.52.33,1,.72,1.52,1.06a7.18,7.18,0,0,0,5,1.36,7.52,7.52,0,0,0,3.61-2c1.33-1.05,2.56-2.24,3.94-3.23A7.76,7.76,0,0,1,49,8C51.8,9.43,53.49,12.3,53.44,16.07Z"/><path class="cls-1" d="M16.87,9.73c-.16,1-.49,2.64-.73,4.31a18.15,18.15,0,0,0-.27,3.28c.08,2.49,1.76,3.88,3.72,5,.58.34,1.24.55,1.85.86a4.63,4.63,0,0,1,2.68,4.3A4.6,4.6,0,1,1,15,26.3a9.08,9.08,0,0,0-.38-4.69,5.24,5.24,0,0,0-3.07-3.08c-1.65-.69-3.33-1.29-5-1.89A8.15,8.15,0,0,1,1.4,12a7.72,7.72,0,0,1,.53-7.22,7.84,7.84,0,0,1,7.34-4C13.57.85,17.13,4.75,16.87,9.73Z"/><path class="cls-1" d="M18.13,36.52c.93-.34,2.53-.89,4.1-1.52a18,18,0,0,0,3-1.41c2.11-1.31,2.47-3.46,2.47-5.72,0-.68-.15-1.35-.17-2a4.57,4.57,0,1,1,5.89,4,9,9,0,0,0-3.87,2.68,5.24,5.24,0,0,0-1.14,4.2c.23,1.77.55,3.52.88,5.28a8.18,8.18,0,0,1-1.48,6.82A7.75,7.75,0,0,1,21.27,52a7.86,7.86,0,0,1-7.12-4.38C12.09,43.82,13.69,38.79,18.13,36.52Z"/></g></g></svg>