<?xml version="1.0" encoding="UTF-8"?> <svg xmlns="http://www.w3.org/2000/svg" id="Layer_1" data-name="Layer 1" viewBox="0 0 58.63 52.23"><defs><style>.cls-1{fill:#008ad1;}</style></defs><title>1</title><path class="cls-1" d="M97.13,112.12c-2-1.78-4.51-1.34-6.89,1.28l-3.77,3.89a4,4,0,0,0-3.87-2.95H75.43a5.57,5.57,0,0,1-4-1.64L68.72,110a10.39,10.39,0,0,0-7.45-3h0l-4.57.54v-2.55a0.93,0.93,0,0,0-.93-0.93h-4v-0.31a0.93,0.93,0,0,0-.93-0.93H40.94a0.93,0.93,0,0,0-.93.93v25.92a0.93,0.93,0,0,0,.93.93h7.41A3.39,3.39,0,0,0,51.59,128h4.16a0.91,0.91,0,0,0,.89-0.73,21.55,21.55,0,0,0,7.41,2H82.42a10.48,10.48,0,0,0,7.72-3.39l6.93-7.14a4.91,4.91,0,0,0,1.58-3.55A4.25,4.25,0,0,0,97.13,112.12Zm-47.25-7.23v22.22a1.54,1.54,0,0,1-1.54,1.54H41.86V104.58h8v0.31Zm4.94,21.29H51.74V105.82h3.09v20.37Zm40.92-8.74-7,7.17a8.64,8.64,0,0,1-6.37,2.81H64c-2,0-4.87-1-7.37-2.11v-16l4.67-.55a8.52,8.52,0,0,1,6.06,2.51L70.16,114a7.41,7.41,0,0,0,5.27,2.18h7.18a2.16,2.16,0,0,1,2.15,2.39,1.94,1.94,0,0,1-.26.77,2.19,2.19,0,0,1-1.7,1.15H70.35A11,11,0,0,1,64.74,119a0.93,0.93,0,1,0-.95,1.59,12.84,12.84,0,0,0,6.56,1.8H82.8A4,4,0,0,0,86,120.48l5.63-5.81c1.67-1.83,3.06-2.29,4.3-1.17a2.41,2.41,0,0,1,.9,1.74A3.11,3.11,0,0,1,95.75,117.44Z" transform="translate(-40.01 -78.28)"></path><path class="cls-1" d="M65,95.34l0.26,2.3a1.64,1.64,0,0,0,1.81,1.44l1.35-.15a13.64,13.64,0,0,0,.55,1.39l-1.09.81a1.64,1.64,0,0,0-.34,2.29l1.38,1.86h0a1.64,1.64,0,0,0,2.29.34l1.09-.81a13.54,13.54,0,0,0,1.17.93L72.93,107a1.64,1.64,0,0,0,.85,2.15l2.13,0.92a1.64,1.64,0,0,0,2.15-.85L78.59,108a13.68,13.68,0,0,0,1.48.22l0.16,1.35A1.63,1.63,0,0,0,81.85,111H82l2.3-.26a1.64,1.64,0,0,0,1.44-1.81l-0.15-1.35A13.59,13.59,0,0,0,87,107l0.81,1.09a1.64,1.64,0,0,0,2.29.34L92,107a1.64,1.64,0,0,0,.34-2.29l-0.81-1.09a13.56,13.56,0,0,0,.93-1.17L93.68,103a1.63,1.63,0,0,0,2.15-.85l0.92-2.12a1.63,1.63,0,0,0-.85-2.15l-1.25-.54a13.66,13.66,0,0,0,.22-1.48l1.35-.16a1.63,1.63,0,0,0,1.44-1.81l-0.26-2.3a1.64,1.64,0,0,0-1.81-1.44l-1.35.15a13.45,13.45,0,0,0-.55-1.39l1.09-.81a1.64,1.64,0,0,0,.34-2.29L93.74,84a1.64,1.64,0,0,0-2.29-.34l-1.09.81a13.48,13.48,0,0,0-1.17-.93l0.54-1.25a1.64,1.64,0,0,0-.85-2.15l-2.13-.92a1.63,1.63,0,0,0-2.15.85L84.06,81.3a13.85,13.85,0,0,0-1.48-.22l-0.16-1.35a1.63,1.63,0,0,0-1.81-1.44l-2.3.26a1.64,1.64,0,0,0-1.44,1.81L77,81.72a13.74,13.74,0,0,0-1.39.55l-0.81-1.09a1.64,1.64,0,0,0-2.29-.34l-1.86,1.38a1.64,1.64,0,0,0-.34,2.29l0.81,1.09a13.76,13.76,0,0,0-.93,1.17L69,86.22a1.64,1.64,0,0,0-2.15.85L65.9,89.2a1.64,1.64,0,0,0,.85,2.15L68,91.89a13.79,13.79,0,0,0-.22,1.48l-1.35.16A1.63,1.63,0,0,0,65,95.34Zm6.28-7a11.81,11.81,0,0,1,1.62-2A0.86,0.86,0,0,0,73,85.14l-1.18-1.6,1.71-1.27,1.18,1.6a0.86,0.86,0,0,0,1.1.25,11.79,11.79,0,0,1,2.42-1,0.86,0.86,0,0,0,.63-0.93l-0.23-2L80.72,80l0.23,2a0.86,0.86,0,0,0,.83.76,12,12,0,0,1,2.57.38,0.86,0.86,0,0,0,1-.49l0.79-1.82,2,0.85-0.79,1.82a0.86,0.86,0,0,0,.33,1.07,11.79,11.79,0,0,1,2,1.61,0.87,0.87,0,0,0,1.12.08l1.6-1.18,1.27,1.71L92.08,88a0.86,0.86,0,0,0-.25,1.1,11.78,11.78,0,0,1,1,2.42,0.86,0.86,0,0,0,.93.63l2-.23L95.94,94l-2,.23a0.86,0.86,0,0,0-.76.82,12,12,0,0,1-.38,2.57,0.87,0.87,0,0,0,.49,1l1.83,0.79-0.85,2-1.82-.79a0.86,0.86,0,0,0-1.07.33,11.82,11.82,0,0,1-1.62,2,0.86,0.86,0,0,0-.08,1.12l1.18,1.6L89.15,107,88,105.38a0.86,0.86,0,0,0-1.1-.25,11.9,11.9,0,0,1-2.42,1,0.86,0.86,0,0,0-.63.93l0.23,2-2.12.24-0.23-2a0.87,0.87,0,0,0-.83-0.76,11.88,11.88,0,0,1-2.57-.38,0.86,0.86,0,0,0-1,.49l-0.79,1.83-2-.85,0.79-1.82a0.86,0.86,0,0,0-.33-1.07,11.79,11.79,0,0,1-2-1.62,0.86,0.86,0,0,0-1.12-.08l-1.59,1.18L69,102.45l1.59-1.18a0.86,0.86,0,0,0,.25-1.1,11.87,11.87,0,0,1-1-2.42,0.86,0.86,0,0,0-.93-0.63l-2,.23-0.24-2.12,2-.23a0.86,0.86,0,0,0,.76-0.82,11.92,11.92,0,0,1,.38-2.57,0.87,0.87,0,0,0-.49-1l-1.83-.79,0.85-2,1.82,0.79A0.86,0.86,0,0,0,71.27,88.3Z" transform="translate(-40.01 -78.28)"></path><path class="cls-1" d="M80,103.75a9.43,9.43,0,0,0,1.38.1A9.27,9.27,0,1,0,80,103.75Zm7.38-13.6a7.51,7.51,0,1,1-6-3A7.45,7.45,0,0,1,87.35,90.16Z" transform="translate(-40.01 -78.28)"></path><path class="cls-1" d="M46.88,92.27L49.08,93l-1.62,1.65a0.86,0.86,0,0,0-.15,1,9.27,9.27,0,0,0,1.82,2.45,0.86,0.86,0,0,0,1,.15l2-1.07,0,2.31a0.87,0.87,0,0,0,.6.81,9.39,9.39,0,0,0,2.88.45h0.14a0.86,0.86,0,0,0,.81-0.61l0.69-2.2L59,99.52a0.86,0.86,0,0,0,1,.15,9.57,9.57,0,0,0,2.45-1.82,0.86,0.86,0,0,0,.15-1L61.5,94.81l2.31,0a0.86,0.86,0,0,0,.81-0.6,9.41,9.41,0,0,0,.45-3,0.86,0.86,0,0,0-.6-0.81l-2.2-.69L63.88,88A0.86,0.86,0,0,0,64,87a9.27,9.27,0,0,0-1.82-2.45,0.86,0.86,0,0,0-1-.14l-2,1.07,0-2.31a0.86,0.86,0,0,0-.6-0.81,9.6,9.6,0,0,0-3-.45,0.86,0.86,0,0,0-.81.6L54,84.72l-1.65-1.61a0.86,0.86,0,0,0-1-.15,9.33,9.33,0,0,0-2.45,1.82,0.86,0.86,0,0,0-.14,1l1.07,2-2.31,0a0.86,0.86,0,0,0-.81.6,9.37,9.37,0,0,0-.45,3A0.86,0.86,0,0,0,46.88,92.27Zm8.6-6.43,0.69-2.19a7.73,7.73,0,0,1,1.26.19l0,2.29a0.86,0.86,0,0,0,.48.76,4.63,4.63,0,0,1,.59.35,0.86,0.86,0,0,0,.9.06l2-1.06a7.55,7.55,0,0,1,.76,1l-1.6,1.64a0.86,0.86,0,0,0-.2.88,4.42,4.42,0,0,1,.16.66,0.86,0.86,0,0,0,.59.68l2.19,0.69a7.64,7.64,0,0,1-.19,1.26l-2.29,0a0.86,0.86,0,0,0-.77.48,4.53,4.53,0,0,1-.35.58,0.86,0.86,0,0,0-.06.89l1.06,2c-0.16.14-.32,0.27-0.49,0.4s-0.35.25-.53,0.36l-1.64-1.6a0.86,0.86,0,0,0-.87-0.2,4.69,4.69,0,0,1-.66.16,0.86,0.86,0,0,0-.68.59L55.18,99a7.77,7.77,0,0,1-1.26-.19l0-2.3a0.86,0.86,0,0,0-.47-0.76,4.86,4.86,0,0,1-.59-0.35,0.86,0.86,0,0,0-.89-0.06l-2,1.06a7.43,7.43,0,0,1-.76-1l1.6-1.64A0.86,0.86,0,0,0,51,92.85a4.9,4.9,0,0,1-.17-0.67,0.86,0.86,0,0,0-.59-0.67L48,90.82a7.6,7.6,0,0,1,.19-1.25l2.29,0a0.86,0.86,0,0,0,.76-0.47,5,5,0,0,1,.35-0.59,0.86,0.86,0,0,0,.06-0.89l-1.06-2c0.16-.14.33-0.28,0.49-0.4s0.34-.24.52-0.36l1.64,1.61a0.86,0.86,0,0,0,.87.2,5,5,0,0,1,.67-0.17A0.86,0.86,0,0,0,55.48,85.84Z" transform="translate(-40.01 -78.28)"></path><path class="cls-1" d="M52.53,90.85a3.17,3.17,0,0,0,2.67,3.61,3.25,3.25,0,0,0,.47,0,3.17,3.17,0,0,0,2.54-5.07A3.17,3.17,0,0,0,52.53,90.85Zm2.28-.7a1.45,1.45,0,1,1-.3,2A1.44,1.44,0,0,1,54.81,90.15Z" transform="translate(-40.01 -78.28)"></path></svg> 