<?xml version="1.0" encoding="UTF-8"?> <svg xmlns="http://www.w3.org/2000/svg" viewBox="0 0 68.37 83.21"><defs><style>.cls-1{fill:none;stroke:#008ad1;stroke-miterlimit:10;stroke-width:2px;}.cls-2{fill:#008ad1;}</style></defs><g id="Layer_2" data-name="Layer 2"><g id="Layer_1-2" data-name="Layer 1"><path class="cls-1" d="M54.3,66.32l3.52,15.89H45.05V76.34h3.19l-4.9-22.11H18.26a1.68,1.68,0,0,1-1.68-1.68V45.4a1.68,1.68,0,0,1,1.68-1.68H43.34v1.21a4.6,4.6,0,0,0,4.6,4.6h2.64l1.7,7.67,7.41,4.28a1,1,0,0,1,0,1.73Z"></path><line class="cls-1" x1="45.05" y1="76.34" x2="39.69" y2="76.34"></line><line class="cls-1" x1="57.83" y1="82.21" x2="57.82" y2="82.21"></line><line class="cls-1" x1="56.06" y1="49.53" x2="50.58" y2="49.53"></line><polyline class="cls-1" points="28.22 72.08 32.77 67.52 38.02 47.92"></polyline><line class="cls-1" x1="34.77" y1="60" x2="44.6" y2="60"></line><line class="cls-1" x1="21.45" y1="43.72" x2="21.45" y2="54.23"></line><line class="cls-1" x1="26.32" y1="43.72" x2="26.32" y2="47.93"></line><path class="cls-1" d="M67.23,12.12,56.62,30.38a6,6,0,0,1-5.18,3H46.08a2,2,0,0,0-1.73,1L39,43.72H34.33l6.56-11.33a2,2,0,0,0,0-2l-2.67-4.65a6,6,0,0,1,0-6L48.84,1.5a1,1,0,0,1,1.36-.37l16.67,9.62A1,1,0,0,1,67.23,12.12Z"></path><line class="cls-1" x1="40.81" y1="15.32" x2="64.9" y2="15.32"></line><circle class="cls-2" cx="10" cy="48.98" r="1"></circle><circle class="cls-2" cx="7" cy="50.98" r="1"></circle><circle class="cls-2" cx="7" cy="46.98" r="1"></circle><circle class="cls-2" cx="1" cy="54.98" r="1"></circle><circle class="cls-2" cx="1" cy="50.98" r="1"></circle><circle class="cls-2" cx="1" cy="46.98" r="1"></circle><circle class="cls-2" cx="1" cy="42.98" r="1"></circle><circle class="cls-2" cx="4" cy="48.98" r="1"></circle><circle class="cls-2" cx="4" cy="52.98" r="1"></circle><circle class="cls-2" cx="4" cy="44.98" r="1"></circle></g></g></svg> 