<?xml version="1.0" encoding="UTF-8"?> <!-- Generator: Adobe Illustrator 24.2.3, SVG Export Plug-In . SVG Version: 6.00 Build 0) --> <svg xmlns="http://www.w3.org/2000/svg" xmlns:xlink="http://www.w3.org/1999/xlink" version="1.1" id="Layer_1" x="0px" y="0px" viewBox="0 0 63.7 63.1" style="enable-background:new 0 0 63.7 63.1;" xml:space="preserve"> <style type="text/css"> .st0{fill:#1588C9;} </style> <g> <path class="st0" d="M41.8,28.9c-3.5,0.1-6.3-2.6-6.4-6.1s2.6-6.3,6.1-6.4s6.3,2.6,6.4,6.1c0,0.1,0,0.1,0,0.2 C47.9,26.1,45.2,28.9,41.8,28.9z M41.8,18.2c-2.5-0.1-4.6,1.8-4.7,4.3C37,25,39,27.1,41.5,27.2s4.6-1.8,4.7-4.3c0-0.1,0-0.1,0-0.2 C46.2,20.3,44.3,18.3,41.8,18.2L41.8,18.2z"></path> <path class="st0" d="M17,39.6c-0.1-4.5,3.5-8.2,8-8.3c4.6,0.2,8.1,4,8,8.6c-0.2,4.3-3.6,7.8-8,8C20.5,47.8,16.9,44.1,17,39.6z M19.3,39.6c-0.1,3.2,2.5,5.9,5.8,6c3.3,0,6-2.7,6-6s-2.7-6-6-6C21.8,33.6,19.2,36.3,19.3,39.6C19.2,39.6,19.2,39.6,19.3,39.6 L19.3,39.6z"></path> <path class="st0" d="M38.1,57.9c0.1-2.8,2.4-4.9,5.2-4.8c2.8,0.1,4.9,2.4,4.8,5.2c-0.1,2.7-2.3,4.8-5,4.8 C40.3,63,38.1,60.7,38.1,57.9z M40.1,57.9c0.1,1.7,1.5,2.9,3.2,2.8s2.9-1.5,2.8-3.2c-0.1-1.6-1.4-2.8-3-2.8 C41.4,54.8,40.1,56.2,40.1,57.9z"></path> <rect x="34.8" y="42.9" transform="matrix(0.7256 -0.6881 0.6881 0.7256 -24.4593 38.2801)" class="st0" width="2" height="13.7"></rect> <path class="st0" d="M0,27.2c0-3.1,2.5-5.7,5.6-5.8c3.2,0,5.7,2.6,5.7,5.8c0,3.2-2.6,5.7-5.7,5.7C2.5,32.9,0,30.4,0,27.2z M2,27.2 c0,2,1.6,3.7,3.6,3.8c2.1,0,3.8-1.7,3.8-3.8s-1.7-3.8-3.8-3.8C3.6,23.5,2,25.2,2,27.2z"></path> <rect x="13.2" y="27" transform="matrix(0.5367 -0.8438 0.8438 0.5367 -20.7599 26.9508)" class="st0" width="2" height="10.8"></rect> <path class="st0" d="M4.6,53.6c0-2.8,2.2-5.1,5-5.2c2.9,0,5.2,2.3,5.2,5.2s-2.3,5.2-5.2,5.2C6.8,58.7,4.6,56.4,4.6,53.6z M6.6,53.6 c0,1.7,1.3,3.1,3,3.2c1.8,0,3.2-1.4,3.2-3.2s-1.4-3.2-3.2-3.2l0,0C7.9,50.5,6.6,51.9,6.6,53.6z"></path> <rect x="12" y="47" transform="matrix(0.7086 -0.7056 0.7056 0.7086 -29.1729 25.3822)" class="st0" width="8.4" height="2"></rect> <rect x="27.9" y="29.8" transform="matrix(0.7141 -0.7 0.7 0.7141 -11.7907 32.6985)" class="st0" width="12.4" height="2"></rect> <path class="st0" d="M59.1,18.3c-2.6,0.1-4.8-2-4.8-4.6s2-4.8,4.6-4.8c2.6-0.1,4.8,2,4.8,4.6c0,0,0,0.1,0,0.1 C63.7,16.2,61.7,18.3,59.1,18.3z M59.1,10.5c-1.7-0.1-3.2,1.2-3.2,2.9c-0.1,1.7,1.2,3.2,2.9,3.2c1.7,0.1,3.2-1.2,3.2-2.9 c0-0.1,0-0.1,0-0.2C62,12,60.7,10.6,59.1,10.5z"></path> <rect x="45.9" y="18" transform="matrix(0.8438 -0.5367 0.5367 0.8438 -2.1591 30.4882)" class="st0" width="10.8" height="2"></rect> <path class="st0" d="M38.6,0c2.8,0.1,5,2.4,5,5.2c0,2.8-2.3,5-5,5c-2.8,0-5-2.3-5-5C33.5,2.4,35.8,0,38.6,0C38.6,0,38.6,0,38.6,0z M38.6,8.4c1.7-0.1,3-1.5,3-3.2c0-1.7-1.4-3-3-3c-1.7,0-3,1.4-3,3C35.5,6.9,36.9,8.3,38.6,8.4C38.6,8.4,38.6,8.4,38.6,8.4z"></path> <rect x="39.1" y="9.2" transform="matrix(0.9927 -0.1208 0.1208 0.9927 -1.322 4.946)" class="st0" width="2" height="8.4"></rect> </g> </svg> 