<?xml version="1.0" encoding="UTF-8"?> <svg xmlns="http://www.w3.org/2000/svg" viewBox="0 0 63.93 51.5"><defs><style>.cls-1,.cls-2{fill:none;stroke:#008ad1;stroke-linejoin:round;}.cls-1{stroke-width:1.5px;}.cls-2{stroke-width:0.75px;}</style></defs><g id="Layer_2" data-name="Layer 2"><g id="Layer_1-2" data-name="Layer 1"><path class="cls-1" d="M8.55,41.58a2.93,2.93,0,1,0,2.93,2.93A2.93,2.93,0,0,0,8.55,41.58Z"></path><path class="cls-1" d="M20.61,41.58a2.93,2.93,0,1,0,2.93,2.93A2.93,2.93,0,0,0,20.61,41.58Z"></path><path class="cls-1" d="M32.67,41.58a2.93,2.93,0,1,0,2.93,2.93A2.93,2.93,0,0,0,32.67,41.58Z"></path><path class="cls-1" d="M44.73,41.58a2.93,2.93,0,1,0,2.93,2.93A2.93,2.93,0,0,0,44.73,41.58Z"></path><path class="cls-1" d="M56.79,41.58a2.93,2.93,0,1,0,2.92,2.93A2.93,2.93,0,0,0,56.79,41.58Z"></path><path class="cls-1" d="M63.18,44.51a6.24,6.24,0,0,1-6.24,6.24H7A6.25,6.25,0,0,1,7,38.26H56.94A6.24,6.24,0,0,1,63.18,44.51Z"></path><polygon class="cls-2" points="16.55 26.85 13.43 28.66 10.31 26.85 13.43 25.05 16.55 26.85"></polygon><polygon class="cls-2" points="13.43 28.66 13.43 32.26 10.31 30.46 10.31 26.85 13.43 28.66"></polygon><polygon class="cls-2" points="16.55 26.85 16.55 30.46 13.43 32.26 13.43 28.66 16.55 26.85"></polygon><line class="cls-1" x1="17.33" y1="35.34" x2="15.33" y2="35.34"></line><line class="cls-1" x1="11.53" y1="35.34" x2="9.53" y2="35.34"></line><rect class="cls-1" x="5.63" y="22.66" width="15.61" height="15.61" rx="0.98"></rect><polygon class="cls-2" points="16.55 8.71 13.43 10.52 10.31 8.71 13.43 6.91 16.55 8.71"></polygon><polygon class="cls-2" points="13.43 10.52 13.43 14.12 10.31 12.32 10.31 8.71 13.43 10.52"></polygon><polygon class="cls-2" points="16.55 8.71 16.55 12.32 13.43 14.12 13.43 10.52 16.55 8.71"></polygon><line class="cls-1" x1="17.33" y1="17.2" x2="15.33" y2="17.2"></line><line class="cls-1" x1="11.53" y1="17.2" x2="9.53" y2="17.2"></line><path class="cls-1" d="M6.6,4.51H20.26a1,1,0,0,1,1,1V19.15a1,1,0,0,1-1,1H6.6a1,1,0,0,1-1-1V5.49A1,1,0,0,1,6.6,4.51Z"></path><path class="cls-1" d="M51.81,18.81a1.1,1.1,0,0,1,.84-.78l3.89-.78V14.69l-3.89-.78a1.11,1.11,0,0,1-.84-.78,10,10,0,0,0-1.08-2.54,1.07,1.07,0,0,1,0-1.14L52.89,6.2l-1.8-1.81L47.84,6.56a1.16,1.16,0,0,1-1.14,0,9.76,9.76,0,0,0-2.55-1.09,1.11,1.11,0,0,1-.78-.83L42.59.75H40l-.73,3.83a1.08,1.08,0,0,1-.78.84A10.57,10.57,0,0,0,36,6.5a1.09,1.09,0,0,1-1.13,0L31.6,4.34,29.79,6.15,32,9.4a1,1,0,0,1,0,1.13,10.86,10.86,0,0,0-1.08,2.55,1.1,1.1,0,0,1-.83.78l-3.89.78V17.2l3.83.72a1.08,1.08,0,0,1,.84.78,10.4,10.4,0,0,0,1.08,2.55,1,1,0,0,1,0,1.13l-2.17,3.25,1.81,1.81,3.25-2.16a1.07,1.07,0,0,1,1.14,0,11.23,11.23,0,0,0,2.55,1.08,1.07,1.07,0,0,1,.78.83L40,31.08h2.55l.78-3.78a1.1,1.1,0,0,1,.78-.83,10.86,10.86,0,0,0,2.55-1.08,1.07,1.07,0,0,1,1.14,0l3.25,2.16,1.8-1.81-2.16-3.25a1,1,0,0,1,0-1.13A10.57,10.57,0,0,0,51.81,18.81Z"></path><circle class="cls-1" cx="41.34" cy="15.92" r="5.42"></circle></g></g></svg> 