<?xml version="1.0" encoding="UTF-8"?> <svg xmlns="http://www.w3.org/2000/svg" viewBox="0 0 49.65 51.5"><defs><style>.cls-1,.cls-3{fill:#008ad1;}.cls-1{fill-rule:evenodd;}.cls-2{fill:none;stroke:#008ad1;stroke-linejoin:round;stroke-width:1.5px;}</style></defs><g id="Layer_2" data-name="Layer 2"><g id="Layer_1-2" data-name="Layer 1"><path class="cls-1" d="M39.2,29.22a13.7,13.7,0,0,1-2.6,5.2.93.93,0,1,0,1.45,1.15,15.72,15.72,0,0,0,3-5.89.93.93,0,0,0-1.8-.46"></path><path class="cls-2" d="M26.68,12.79a.93.93,0,0,1-.93.92,12,12,0,0,0,0,24.08.93.93,0,0,1,.93.92V49.82a.93.93,0,0,1-.93.93,24.35,24.35,0,0,1-3.91-.31.92.92,0,0,1-.75-.68l-.87-3.35a21.22,21.22,0,0,1-5.16-2.14l-3,1.75a.91.91,0,0,1-1-.05,24.59,24.59,0,0,1-5.53-5.53.91.91,0,0,1,0-1l1.75-3a20.83,20.83,0,0,1-2.14-5.16l-3.35-.87a.92.92,0,0,1-.68-.75,25,25,0,0,1,0-7.82.92.92,0,0,1,.68-.75l3.35-.88a20.92,20.92,0,0,1,2.14-5.15l-1.75-3a.91.91,0,0,1,0-1,24.84,24.84,0,0,1,5.53-5.54,1,1,0,0,1,1,0l3,1.76a20.83,20.83,0,0,1,5.16-2.14l.87-3.35a.92.92,0,0,1,.75-.68A24.35,24.35,0,0,1,25.75.75a.93.93,0,0,1,.93.93V12.79Z"></path><path class="cls-2" d="M28.53,2.77a23.15,23.15,0,0,1,0,46V43.12a17.59,17.59,0,0,0,0-34.74Z"></path><path class="cls-1" d="M41.49,25.75a.93.93,0,1,1-.92-.93.93.93,0,0,1,.92.93"></path><path class="cls-3" d="M39.4,17.79a1.22,1.22,0,0,0-1.62-.57L24.12,23.73a2.47,2.47,0,0,0-.44.27,2.67,2.67,0,0,0,3.17,4.29l12.17-9a1.22,1.22,0,0,0,.38-1.5"></path></g></g></svg> 