<?xml version="1.0" encoding="UTF-8"?> <svg xmlns="http://www.w3.org/2000/svg" viewBox="0 0 42.14 51.5"><defs><style>.cls-1,.cls-2{fill:none;stroke:#008ad1;stroke-linejoin:round;stroke-width:1.5px;}.cls-2{stroke-linecap:round;}.cls-3{fill:#008ad1;}</style></defs><g id="Layer_2" data-name="Layer 2"><g id="Layer_1-2" data-name="Layer 1"><path class="cls-1" d="M29.23,13.63a7.57,7.57,0,1,1-7.57-7.57A7.56,7.56,0,0,1,29.23,13.63Z"></path><path class="cls-1" d="M25.43,13.63a3.77,3.77,0,1,1-3.77-3.78A3.77,3.77,0,0,1,25.43,13.63Z"></path><path class="cls-1" d="M23.79,6.36V2.88a2.13,2.13,0,0,0-4.26,0V6.36"></path><path class="cls-2" d="M41.39,29.51a39.79,39.79,0,0,1-19.73,5,39.81,39.81,0,0,1-19.73-5"></path><polyline class="cls-1" points="18.51 20.5 8.25 45.27 8.25 34.15 15.19 17.4"></polyline><polyline class="cls-1" points="24.93 20.45 35.19 45.22 35.19 34.1 28.25 17.35"></polyline><path class="cls-3" d="M21.66,37h0a.94.94,0,0,1-.93-.94V32.92a.93.93,0,0,1,1.86,0V36a.93.93,0,0,1-.93.94"></path><line class="cls-1" x1="9.63" y1="48.12" x2="9.63" y2="50.75"></line><line class="cls-1" x1="14.07" y1="48.12" x2="14.07" y2="50.75"></line><line class="cls-1" x1="18.51" y1="48.12" x2="18.51" y2="50.75"></line><line class="cls-1" x1="22.95" y1="48.12" x2="22.95" y2="50.75"></line><line class="cls-1" x1="27.39" y1="48.12" x2="27.39" y2="50.75"></line><line class="cls-1" x1="31.83" y1="48.12" x2="31.83" y2="50.75"></line><line class="cls-1" x1="36.27" y1="48.12" x2="36.27" y2="50.75"></line><line class="cls-1" x1="40.7" y1="48.12" x2="40.7" y2="50.75"></line><line class="cls-1" x1="32.46" y1="43.72" x2="10.98" y2="43.72"></line><polyline class="cls-1" points="6.21 43.72 0.75 43.72 0.75 50.75 40.7 50.75 40.7 43.72 37.23 43.72"></polyline></g></g></svg> 