<?xml version="1.0" encoding="UTF-8"?> <svg xmlns="http://www.w3.org/2000/svg" viewBox="0 0 54.57 51.5"><defs><style>.cls-1{fill:none;stroke:#008ad1;stroke-linejoin:round;stroke-width:1.5px;}</style></defs><g id="Layer_2" data-name="Layer 2"><g id="Layer_1-2" data-name="Layer 1"><path class="cls-1" d="M29.69,6A5.26,5.26,0,1,1,24.42.75,5.26,5.26,0,0,1,29.69,6Z"></path><path class="cls-1" d="M23.83,13.38a20.62,20.62,0,0,0-9.24,2.17,1.28,1.28,0,0,1-1.39-.14L8.82,12l1.81,5.15a1.31,1.31,0,0,1-.34,1.4A16.76,16.76,0,0,0,5.52,26a1.35,1.35,0,0,1-.73.82l-4,1.78v3.85l4,1.79a1.3,1.3,0,0,1,.73.82A17.33,17.33,0,0,0,13,44.65a1.28,1.28,0,0,1,.59.9l.8,5.2h3.49l.36-2.32a1.32,1.32,0,0,1,1.55-1.08,20.53,20.53,0,0,0,8.19,0,1.32,1.32,0,0,1,1.55,1.08l.36,2.32h3.49l.8-5.2a1.31,1.31,0,0,1,.59-.9,16.8,16.8,0,0,0,8.12-14.08C42.84,21.09,34.31,13.38,23.83,13.38Z"></path><path class="cls-1" d="M11.23,27.13a1.28,1.28,0,1,1,1.27-1.27A1.27,1.27,0,0,1,11.23,27.13Z"></path><path class="cls-1" d="M33,20.05a1.58,1.58,0,0,1-1.4.87,1.53,1.53,0,0,1-.69-.17,19.47,19.47,0,0,0-6.62-1.69,20.57,20.57,0,0,0-6.55.89,1.56,1.56,0,1,1-1-3,23,23,0,0,1,7.71-1.06,21.82,21.82,0,0,1,7.85,2A1.56,1.56,0,0,1,33,20.05Z"></path><path class="cls-1" d="M52.29,18.47s-6.15,1.07-6.51,6.5,5.12,7.75,7.47,4.6A3.67,3.67,0,0,0,51,24.06c-1.83-.45-4.56-.13-9.13,2.63"></path></g></g></svg> 