<?xml version="1.0" encoding="UTF-8"?> <svg xmlns="http://www.w3.org/2000/svg" viewBox="0 0 24.78 51.5"><defs><style>.cls-1,.cls-3{fill:none;}.cls-1{stroke:#008ad1;stroke-linejoin:round;stroke-width:1.5px;}.cls-2{fill:#008ad1;}.cls-3{stroke:#fff;stroke-miterlimit:10;stroke-dasharray:4 2;}</style></defs><g id="Layer_2" data-name="Layer 2"><g id="Layer_1-2" data-name="Layer 1"><rect class="cls-1" x="0.75" y="0.75" width="23.28" height="19.17"></rect><rect class="cls-1" x="0.75" y="31.58" width="23.28" height="19.17"></rect><path class="cls-2" d="M15.92,21.64h0Z"></path><path class="cls-2" d="M15.92,46H8.86V29.88l0,0a6.11,6.11,0,0,0,0-8.22l0,0V5.52h7.06V21.63h0a6.11,6.11,0,0,0,0,8.22l0,0Z"></path><path class="cls-2" d="M8.88,21.64h0v0l0,0"></path><path class="cls-2" d="M8.86,29.88v0h0l0,0"></path><path class="cls-2" d="M15.92,29.88l0,0h0Z"></path><line class="cls-3" x1="12.39" y1="8.52" x2="12.39" y2="42.98"></line></g></g></svg> 