<?xml version="1.0" encoding="UTF-8"?> <svg xmlns="http://www.w3.org/2000/svg" viewBox="0 0 52.51 51.5"><defs><style>.cls-1,.cls-2{fill:none;stroke:#008ad1;stroke-linejoin:round;stroke-width:1.5px;}.cls-2{stroke-dasharray:4.32 2.16;}</style></defs><g id="Layer_2" data-name="Layer 2"><g id="Layer_1-2" data-name="Layer 1"><polygon class="cls-1" points="34.6 21.52 23.66 27.84 12.72 21.52 23.66 15.21 34.6 21.52"></polygon><polygon class="cls-1" points="23.66 27.84 23.66 40.47 12.72 34.15 12.72 21.52 23.66 27.84"></polygon><polygon class="cls-1" points="34.6 21.52 34.6 34.15 23.66 40.47 23.66 27.84 34.6 21.52"></polygon><line class="cls-1" x1="23.66" y1="15.21" x2="23.66" y2="17.21"></line><line class="cls-2" x1="23.66" y1="19.36" x2="23.66" y2="24.76"></line><line class="cls-1" x1="23.66" y1="25.84" x2="23.66" y2="27.84"></line><path class="cls-1" d="M39.43,44.46A22.91,22.91,0,0,1,6.5,12.65"></path><path class="cls-1" d="M17.51,5.76A22.92,22.92,0,0,1,46.58,27.84,22.81,22.81,0,0,1,46,33.1"></path><path class="cls-1" d="M42.06,27.84a18.4,18.4,0,1,1-18.4-18.4A18.39,18.39,0,0,1,42.06,27.84Z"></path><path class="cls-1" d="M9.86,13.38A6.59,6.59,0,0,0,7.92,8.94,6.63,6.63,0,0,0,3.55,7,6.65,6.65,0,0,0,7.86,5.08,6.68,6.68,0,0,0,9.8.75a6.58,6.58,0,0,0,1.93,4.38,6.64,6.64,0,0,0,4.38,1.94,6.64,6.64,0,0,0-6.25,6.31Z"></path><path class="cls-1" d="M45.51,47.63a6.67,6.67,0,0,0-6.31-6.38A6.64,6.64,0,0,0,45.44,35a6.65,6.65,0,0,0,6.32,6.32,6.64,6.64,0,0,0-4.32,1.94A6.56,6.56,0,0,0,45.51,47.63Z"></path></g></g></svg> 