<?xml version="1.0" encoding="UTF-8"?> <svg xmlns="http://www.w3.org/2000/svg" viewBox="0 0 42.02 37.56"><defs><style>.cls-1,.cls-2{fill:#fff;stroke:#008ad1;stroke-linejoin:round;}.cls-1{stroke-width:2px;}.cls-2{stroke-width:1.5px;}.cls-3{fill:#008ad1;}</style></defs><g id="Layer_2" data-name="Layer 2"><g id="Layer_1-2" data-name="Layer 1"><polygon class="cls-1" points="31.72 9.87 31.72 27.61 16.36 36.48 16.36 18.73 31.72 9.87"></polygon><polygon class="cls-1" points="31.72 9.87 16.36 18.73 1 9.87 16.36 1 31.72 9.87"></polygon><polygon class="cls-1" points="16.36 18.73 16.36 36.48 1 27.61 1 9.87 16.36 18.73"></polygon><circle class="cls-2" cx="31.72" cy="27.27" r="9.55"></circle><path class="cls-3" d="M38.35,25.09l-4.44-.81V22.46a2.19,2.19,0,0,0-4.37,0h0v1.82l-4.44.81a.44.44,0,0,0-.36.43v1.75a.43.43,0,0,0,.43.43h4.37v2.35l-2.38,1.19a.46.46,0,0,0-.24.39v1.31a.44.44,0,0,0,.44.44h8.73a.44.44,0,0,0,.44-.44V31.63a.46.46,0,0,0-.24-.39l-2.38-1.19V27.7h4.36a.43.43,0,0,0,.44-.43V25.52A.44.44,0,0,0,38.35,25.09ZM25.61,26.83v-.94l3.93-.72v1.66Zm2.18,5.07L29.65,31l.08.49.17,1H27.79ZM30.52,31l-.1-.66V22.46a1.31,1.31,0,1,1,2.62,0v7.83l-.11.66-.25,1.56H30.78Zm5.13,1.56h-2.1l.17-1L33.8,31l1.86.92Zm2.19-5.68H33.91V25.17l3.93.72Z"></path></g></g></svg> 