<?xml version="1.0" encoding="UTF-8"?> <svg xmlns="http://www.w3.org/2000/svg" viewBox="0 0 42.39 61.45"><defs><style>.cls-1,.cls-2,.cls-3{fill:none;}.cls-1,.cls-2,.cls-3,.cls-4,.cls-5{stroke:#008ad1;stroke-linejoin:round;}.cls-1,.cls-2,.cls-3,.cls-5{stroke-width:1.5px;}.cls-2{stroke-dasharray:2.96 2.96;}.cls-3{stroke-dasharray:3.08 3.08;}.cls-4,.cls-5{fill:#fff;}.cls-4{stroke-width:2px;}</style></defs><g id="Layer_2" data-name="Layer 2"><g id="Layer_1-2" data-name="Layer 1"><line class="cls-1" x1="16.59" y1="10" x2="16.59" y2="11.5"></line><line class="cls-2" x1="16.59" y1="14.46" x2="16.59" y2="48.47"></line><line class="cls-1" x1="16.59" y1="49.95" x2="16.59" y2="51.45"></line><line class="cls-1" x1="27.03" x2="27.03" y2="1.5"></line><line class="cls-3" x1="27.03" y1="4.58" x2="27.03" y2="58.41"></line><line class="cls-1" x1="27.03" y1="59.95" x2="27.03" y2="61.45"></line><line class="cls-1" x1="37.46" y1="10" x2="37.46" y2="11.5"></line><line class="cls-2" x1="37.46" y1="14.46" x2="37.46" y2="48.47"></line><line class="cls-1" x1="37.46" y1="49.95" x2="37.46" y2="51.45"></line><polygon class="cls-4" points="41.39 22.62 41.39 39.22 27.02 47.51 27.02 30.91 41.39 22.62"></polygon><polygon class="cls-4" points="41.39 22.62 27.02 30.91 12.66 22.62 27.02 14.33 41.39 22.62"></polygon><polygon class="cls-4" points="27.02 30.91 27.02 47.51 12.66 39.22 12.66 22.62 27.02 30.91"></polygon><circle class="cls-5" cx="10.3" cy="40.98" r="9.55"></circle><polyline class="cls-5" points="4.29 41.27 8.1 45.08 16.3 36.88"></polyline></g></g></svg> 