<?xml version="1.0" encoding="UTF-8"?> <svg xmlns="http://www.w3.org/2000/svg" viewBox="0 0 54.07 51.91"><defs><style>.cls-1,.cls-2{fill:none;stroke:#008ad1;}.cls-1{stroke-miterlimit:10;stroke-width:2px;}.cls-2{stroke-linejoin:round;stroke-width:1.5px;}</style></defs><g id="Layer_2" data-name="Layer 2"><g id="Layer_1-2" data-name="Layer 1"><rect class="cls-1" x="12.71" y="1" width="28.64" height="12.34" rx="1.72"></rect><rect class="cls-1" x="1" y="39.1" width="52.07" height="11.81" rx="1.72"></rect><polygon class="cls-2" points="32.17 24.86 26.14 35.19 26.11 27.24 21.9 27.24 27.93 16.91 27.96 24.86 32.17 24.86"></polygon><path class="cls-2" d="M22.81,33.38A8.58,8.58,0,0,1,21.05,32a8.45,8.45,0,0,1,0-12,8.24,8.24,0,0,1,1.76-1.35"></path><path class="cls-2" d="M31.27,18.72A8.18,8.18,0,0,1,33,20.07a8.45,8.45,0,0,1,0,12,8.51,8.51,0,0,1-1.75,1.35"></path><rect class="cls-1" x="1" y="1" width="52.07" height="49.91" rx="3"></rect><path class="cls-1" d="M37.89,39.18c0,3.25-4.86,5.87-10.85,5.87s-10.86-2.62-10.86-5.87Z"></path></g></g></svg> 