<?xml version="1.0" encoding="UTF-8"?> <svg xmlns="http://www.w3.org/2000/svg" viewBox="0 0 47.02 52.92"><defs><style>.cls-1,.cls-3,.cls-4{fill:#fff;}.cls-1,.cls-2,.cls-3,.cls-4{stroke:#008ad1;stroke-linejoin:round;}.cls-1,.cls-2{stroke-width:1.5px;}.cls-2{fill:none;stroke-dasharray:3 3;}.cls-3{stroke-width:2px;}.cls-4{stroke-width:0.5px;}</style></defs><g id="Layer_2" data-name="Layer 2"><g id="Layer_1-2" data-name="Layer 1"><polygon class="cls-1" points="35.89 0.75 14.47 0.75 14.47 40.99 46.27 40.99 46.27 11.13 35.89 0.75"></polygon><polygon class="cls-1" points="35.89 11.13 46.27 11.13 35.89 0.75 35.89 11.13"></polygon><path class="cls-2" d="M41.08,31.14c0-4.19-9-7.59-20.17-7.59S.75,27,.75,31.14"></path><polygon class="cls-3" points="37.19 25.3 37.19 43.05 21.83 51.91 21.83 34.17 37.19 25.3"></polygon><polygon class="cls-3" points="37.19 25.3 21.83 34.17 6.47 25.3 21.83 16.44 37.19 25.3"></polygon><polygon class="cls-3" points="21.83 34.17 21.83 51.91 6.47 43.05 6.47 25.3 21.83 34.17"></polygon><path class="cls-4" d="M19.91,5.09,18.3,6a2,2,0,0,0-1,1.73V9.61a2,2,0,0,0,1,1.73l1.61.93a2,2,0,0,0,2,0l1.61-.93a2,2,0,0,0,1-1.73V7.75a2,2,0,0,0-1-1.73l-1.61-.93A2,2,0,0,0,19.91,5.09Z"></path><line class="cls-4" x1="20.91" y1="4.51" x2="19.6" y2="6.4"></line><path class="cls-4" d="M21.65,6.4H20.17a1,1,0,0,0-.86.5l-.74,1.28a1,1,0,0,0,0,1l.74,1.28a1,1,0,0,0,.86.5h1.48a1,1,0,0,0,.87-.5l.74-1.28a1,1,0,0,0,0-1L22.52,6.9A1,1,0,0,0,21.65,6.4Z"></path><line class="cls-4" x1="17.3" y1="6.6" x2="18.28" y2="8.68"></line><line class="cls-4" x1="17.3" y1="10.77" x2="19.6" y2="10.96"></line><line class="cls-4" x1="20.91" y1="12.85" x2="22.23" y2="10.96"></line><line class="cls-4" x1="24.52" y1="10.77" x2="23.55" y2="8.68"></line><line class="cls-4" x1="24.52" y1="6.6" x2="22.23" y2="6.4"></line><path class="cls-2" d="M41.08,31.14c0,4.19-9,7.58-20.17,7.58S.75,35.33.75,31.14"></path></g></g></svg> 