<?xml version="1.0" encoding="UTF-8"?> <svg xmlns="http://www.w3.org/2000/svg" viewBox="0 0 54.68 51.99"><defs><style>.cls-1,.cls-3,.cls-4,.cls-5{fill:none;stroke:#008ad1;}.cls-1,.cls-4{stroke-miterlimit:10;}.cls-1,.cls-5{stroke-width:2px;}.cls-2{fill:#008ad1;}.cls-3,.cls-5{stroke-linejoin:round;}.cls-3,.cls-4{stroke-width:1.5px;}.cls-5{stroke-linecap:round;}</style></defs><g id="Layer_2" data-name="Layer 2"><g id="Layer_1-2" data-name="Layer 1"><rect class="cls-1" x="1" y="1" width="52.68" height="49.99" rx="4.62"></rect><path class="cls-1" d="M5.62,1H49.06a4.62,4.62,0,0,1,4.62,4.62v6.67a0,0,0,0,1,0,0H1a0,0,0,0,1,0,0V5.62A4.62,4.62,0,0,1,5.62,1Z"></path><circle class="cls-2" cx="7.12" cy="6.91" r="1"></circle><circle class="cls-2" cx="11.32" cy="6.91" r="1"></circle><circle class="cls-2" cx="38.98" cy="16.05" r="0.74"></circle><circle class="cls-2" cx="43.24" cy="42.37" r="0.74"></circle><circle class="cls-2" cx="23.97" cy="41.55" r="0.74"></circle><polygon class="cls-3" points="41.66 25.5 41.66 34.41 33.95 38.85 33.95 29.95 41.66 25.5"></polygon><polygon class="cls-3" points="41.66 25.5 33.95 29.95 26.24 25.5 33.95 21.05 41.66 25.5"></polygon><polygon class="cls-3" points="33.95 29.95 33.95 38.85 26.24 34.41 26.24 25.5 33.95 29.95"></polygon><polyline class="cls-4" points="29.41 32.12 29.41 38.41 23.97 41.55"></polyline><polyline class="cls-4" points="37.8 32.94 37.8 39.23 43.24 42.37"></polyline><polyline class="cls-4" points="33.53 25.47 38.98 22.33 38.98 16.05"></polyline><line class="cls-5" x1="22.28" y1="6.91" x2="44.34" y2="6.91"></line><line class="cls-5" x1="5.03" y1="21.81" x2="16.63" y2="21.81"></line><line class="cls-5" x1="7.12" y1="19.91" x2="7.12" y2="23.7"></line><line class="cls-5" x1="5.03" y1="34.76" x2="16.63" y2="34.76"></line><line class="cls-5" x1="7.12" y1="32.86" x2="7.12" y2="36.66"></line><line class="cls-5" x1="12.32" y1="26.39" x2="12.32" y2="30.18"></line><line class="cls-5" x1="5.03" y1="28.28" x2="16.63" y2="28.28"></line></g></g></svg> 