<?xml version="1.0" encoding="UTF-8"?> <svg xmlns="http://www.w3.org/2000/svg" viewBox="0 0 54.08 51.91"><defs><style>.cls-1{fill:none;stroke:#008ad1;stroke-miterlimit:10;stroke-width:2px;}.cls-2{fill:#008ad1;}</style></defs><g id="Layer_2" data-name="Layer 2"><g id="Layer_1-2" data-name="Layer 1"><path class="cls-1" d="M53.08,26v22a3,3,0,0,1-3,3H4a3,3,0,0,1-3-3V26H12.27a14.77,14.77,0,1,0,29.54,0Z"></path><path class="cls-1" d="M21.38,1V12.3A14.78,14.78,0,0,0,12.27,26H1V4A3,3,0,0,1,4,1Z"></path><path class="cls-1" d="M53.08,4V26H41.81A14.78,14.78,0,0,0,32.7,12.3V1H50.08A3,3,0,0,1,53.08,4Z"></path><path class="cls-2" d="M38.28,26.73a11.24,11.24,0,0,1-22.48,0Z"></path><circle class="cls-2" cx="7.48" cy="7.7" r="2"></circle><circle class="cls-2" cx="45.97" cy="7.7" r="2"></circle><circle class="cls-2" cx="7.48" cy="44.2" r="2"></circle><circle class="cls-2" cx="45.97" cy="44.2" r="2"></circle><rect class="cls-2" x="25.98" y="0.32" width="2.12" height="27.36"></rect></g></g></svg> 