<?xml version="1.0" encoding="UTF-8"?> <svg xmlns="http://www.w3.org/2000/svg" viewBox="0 0 51.5 43.4"><defs><style>.cls-1{fill:none;stroke:#008ad1;stroke-linejoin:round;stroke-width:1.5px;}</style></defs><g id="Layer_2" data-name="Layer 2"><g id="Layer_1-2" data-name="Layer 1"><path class="cls-1" d="M47.05,8.85V38H30.75a3,3,0,0,1-2.8,2.3h-4.3a2.9,2.9,0,0,1-2.9-2.3H4.45V8.85a2,2,0,0,1,2-2h9.8v.3c0,.3.1.7.1,1a4.51,4.51,0,0,0-3.9,4.4A4.46,4.46,0,0,0,17,17h1.8l.3-.9a.76.76,0,0,1,.2-.4c.1-.2.2-.3.2-.5s.2-.3.3-.5a1.76,1.76,0,0,1,.4-.5.78.78,0,0,1,.4-.4c.1-.2.3-.3.4-.4s.3-.2.5-.4.3-.2.5-.3a.76.76,0,0,1,.4-.2c.1-.1.2-.1.4-.2s.2-.1.3-.2.3-.1.5-.2.2-.1.3-.1a.6.6,0,0,1,.4-.1c.2,0,.3-.1.5-.1h0a4.33,4.33,0,0,0,.5-.1h1.3a.75.75,0,0,1,.5.1h0c.2,0,.3.1.5.1s.2,0,.2.1a.1.1,0,0,1,.1.1c.1,0,.2.1.3.1s.3.1.5.2.2.1.3.2.2.1.4.2.3.1.4.2.3.2.5.3a1.76,1.76,0,0,1,.5.4c.2.1.3.3.4.4l.4.4c.1.2.3.3.4.5s.2.3.3.5a.76.76,0,0,1,.2.5c.1.1.1.3.2.4l.3.9h.4a4.4,4.4,0,0,0,.9-8.7h0a6.6,6.6,0,0,0,.1-1.4h10.8A1.84,1.84,0,0,1,47.05,8.85Z"></path><path class="cls-1" d="M50.75,38c0,1.5-.6,2-1.7,3a5.61,5.61,0,0,1-4,1.7H6.35c-3.1,0-5.6-1.5-5.6-4.6h20a3,3,0,0,0,2.9,2.3H28a2.89,2.89,0,0,0,2.8-2.3h20Z"></path><path class="cls-1" d="M11,29.55h29.5a1.11,1.11,0,0,1,1.1,1.1v.5a1.11,1.11,0,0,1-1.1,1.1H11a1.11,1.11,0,0,1-1.1-1.1v-.5A1.11,1.11,0,0,1,11,29.55Z"></path><line class="cls-1" x1="10.15" y1="30.95" x2="18.95" y2="30.95"></line><path class="cls-1" d="M37.75,12.55a4.37,4.37,0,0,1-4.4,4.4H33l-.3-.9a.76.76,0,0,0-.2-.4c-.1-.2-.2-.3-.2-.5s-.2-.3-.3-.5a1.76,1.76,0,0,0-.4-.5.78.78,0,0,0-.4-.4c-.1-.2-.3-.3-.4-.4s-.3-.2-.5-.4-.3-.2-.5-.3a.76.76,0,0,0-.4-.2c-.1-.1-.2-.1-.4-.2s-.2-.1-.3-.2-.3-.1-.5-.2-.2-.1-.3-.1a.1.1,0,0,1-.1-.1c-.1,0-.2,0-.2-.1-.2,0-.3-.1-.5-.1h0a4.33,4.33,0,0,1-.5-.1h-1.3a.75.75,0,0,0-.5.1h0c-.2,0-.3.1-.5.1s-.3.1-.4.1-.2.1-.3.1-.3.1-.5.2-.2.1-.3.2-.2.1-.4.2-.3.1-.4.2-.3.2-.5.3a1.76,1.76,0,0,0-.5.4c-.2.1-.3.3-.4.4l-.4.4c-.1.2-.3.3-.4.5s-.2.3-.3.5a.76.76,0,0,0-.2.5c-.1.1-.1.2-.2.4l-.3.9h-2a4.53,4.53,0,0,1-4.5-4.4,4.36,4.36,0,0,1,3.9-4.4c0-.3-.1-.7-.1-1v-.3a6.65,6.65,0,0,1,6.7-6,6.3,6.3,0,0,1,5.4,3.1h0a4,4,0,0,1,5.4,1.2.35.35,0,0,0,.1.2.35.35,0,0,1,.1.2.1.1,0,0,0,.1.1c0,.1.1.2.1.3.1.3.2.7.3,1a3.44,3.44,0,0,1-.1,1.4h0A4.39,4.39,0,0,1,37.75,12.55Z"></path><path class="cls-1" d="M33.75,5.25l.1.1c-.1,0-.1,0-.1-.1Z"></path><path class="cls-1" d="M33.15,18.85a7.4,7.4,0,0,1-14.8,0,5.82,5.82,0,0,1,.3-1.9l.3-.9a.76.76,0,0,1,.2-.4c.1-.2.2-.3.2-.5s.2-.3.3-.5a1.76,1.76,0,0,1,.4-.5.78.78,0,0,1,.4-.4c.1-.2.3-.3.4-.4s.3-.2.5-.4.3-.2.5-.3a.76.76,0,0,1,.4-.2c.1-.1.2-.1.4-.2s.2-.1.3-.2.3-.1.5-.2.2-.1.3-.1a.6.6,0,0,1,.4-.1c.2,0,.3-.1.5-.1h0a4.33,4.33,0,0,0,.5-.1h1.3a.75.75,0,0,1,.5.1h0c.2,0,.3.1.5.1s.2,0,.2.1a.1.1,0,0,1,.1.1c.1,0,.2.1.3.1s.3.1.5.2.2.1.3.2.2.1.4.2.3.1.4.2.3.2.5.3a1.76,1.76,0,0,1,.5.4c.2.1.3.3.4.4l.4.4c.1.2.3.3.4.5s.2.3.3.5a.76.76,0,0,1,.2.5c.1.1.1.3.2.4l.3.9A5.23,5.23,0,0,1,33.15,18.85Z"></path><path class="cls-1" d="M25.75,14.85c-.1,0-.3.1-.4.1l-3.5,3.9a.45.45,0,0,0,0,.5c.1.1.1.1.2.1h2v3.4h3.4v-3.4h2a.27.27,0,0,0,.3-.3c0-.1,0-.2-.1-.2l-3.5-3.9A.52.52,0,0,0,25.75,14.85Z"></path></g></g></svg> 