<?xml version="1.0" encoding="UTF-8"?> <svg xmlns="http://www.w3.org/2000/svg" viewBox="0 0 53.34 53.25"><defs><style>.cls-1,.cls-2{fill:none;stroke:#008ad1;stroke-linejoin:round;}.cls-1{stroke-width:1.5px;}</style></defs><g id="Layer_2" data-name="Layer 2"><g id="Layer_1-2" data-name="Layer 1"><path class="cls-1" d="M46.14,17.34V41.87c0,5.87-4.24,10.63-9.47,10.63H11.58c-5.23,0-9.47-4.76-9.47-10.63H9.39v-31H39.67A6.47,6.47,0,0,0,46.14,17.34Z"></path><path class="cls-1" d="M9.39,41.87H32.6a5,5,0,0,0,4.73,5.31"></path><path class="cls-1" d="M41.9,11.07l2.69,2.7L50.37,8"></path><path class="cls-1" d="M52.59,10.88a6.46,6.46,0,1,1-6.45-6.46A6.46,6.46,0,0,1,52.59,10.88Z"></path><path class="cls-1" d="M28,24.35V36.78H22a2.42,2.42,0,0,1-2.42-2.43V28.06H26Z"></path><path class="cls-1" d="M36.45,28.06v6.29A2.43,2.43,0,0,1,34,36.78H28V24.35l2,3.71Z"></path><polygon class="cls-1" points="28.01 24.36 26.03 28.06 17.6 28.06 19.58 24.36 28.01 24.36"></polygon><polygon class="cls-1" points="38.43 28.06 29.99 28.06 28.01 24.36 36.45 24.36 38.43 28.06"></polygon><rect class="cls-2" x="0.5" y="2.43" width="3.22" height="27.37"></rect><rect class="cls-2" x="0.93" y="0.5" width="2.36" height="1.93"></rect><polygon class="cls-2" points="3.72 29.8 2.11 32.69 0.5 29.8 3.72 29.8"></polygon><line class="cls-1" x1="20.33" y1="20.05" x2="35.69" y2="20.05"></line><line class="cls-1" x1="12.41" y1="24.87" x2="15.52" y2="24.87"></line><line class="cls-1" x1="12.41" y1="28.06" x2="15.52" y2="28.06"></line><line class="cls-1" x1="12.41" y1="31.25" x2="15.52" y2="31.25"></line><line class="cls-1" x1="12.41" y1="34.45" x2="15.52" y2="34.45"></line></g></g></svg> 