<?xml version="1.0" encoding="UTF-8"?> <svg xmlns="http://www.w3.org/2000/svg" viewBox="0 0 51.02 51.5"><defs><style>.cls-1,.cls-2{fill:none;stroke:#008ad1;stroke-linejoin:round;}.cls-1{stroke-width:1.5px;}.cls-2{stroke-width:0.75px;stroke-dasharray:1 1;}</style></defs><g id="Layer_2" data-name="Layer 2"><g id="Layer_1-2" data-name="Layer 1"><path class="cls-1" d="M25.5,34.46V50.75H17.63A3.14,3.14,0,0,1,16,50.29a3.19,3.19,0,0,1-1.54-2.73V39.32h8.47Z"></path><path class="cls-1" d="M36.57,39.32v8.24a3.19,3.19,0,0,1-3.19,3.19H25.51V34.46l2.59,4.86Z"></path><polygon class="cls-1" points="25.5 34.46 22.91 39.32 11.86 39.32 14.44 34.46 25.5 34.46"></polygon><polygon class="cls-1" points="39.16 39.32 28.1 39.32 25.51 34.46 36.57 34.46 39.16 39.32"></polygon><path class="cls-1" d="M25.51,7.5A9.52,9.52,0,0,0,16,17c0,1.82.92,3.87,3,6.65.38.5.77,1,1.19,1.52s1,1.29,1.55,1.92A56.21,56.21,0,0,1,25.47,32a56.13,56.13,0,0,1,3.87-5l1.42-1.73C33.31,22.14,35,19.52,35,17A9.51,9.51,0,0,0,25.51,7.5Zm0,14.86A5.33,5.33,0,1,1,30.7,17,5.27,5.27,0,0,1,25.51,22.36Z"></path><path class="cls-1" d="M50.27,3.52V42.26a1,1,0,0,1-.74.94l-13,3.53V39.32h2.59l-2.59-4.86H14.44l-2.58,4.86h2.58v3L2.07,45.71a1,1,0,0,1-.91-.15,1,1,0,0,1-.41-.77V6a1,1,0,0,1,.75-.93L17.32.78a1.31,1.31,0,0,1,.68,0l15.49,6L49,2.58a1.06,1.06,0,0,1,.9.15A1,1,0,0,1,50.27,3.52Z"></path><path class="cls-1" d="M19,23.66c-2-2.78-3-4.83-3-6.65a9.51,9.51,0,1,1,19,0c0,2.51-1.7,5.13-4.25,8.28L29.34,27a56.13,56.13,0,0,0-3.87,5A56.21,56.21,0,0,0,21.7,27.1c-.51-.63-1-1.27-1.55-1.92S19.34,24.16,19,23.66Z"></path><path class="cls-2" d="M4.52,34.91C9.91,26,14,24.21,16.84,24.41c3.08.22,4,2.76,6.85,2.28,4.18-.7,4.31-6.61,10-8.67,2.22-.8,2.68-.09,5-.91,3.91-1.38,6.32-4.67,7.76-7.31"></path></g></g></svg> 