<?xml version="1.0" encoding="UTF-8"?> <svg xmlns="http://www.w3.org/2000/svg" viewBox="0 0 54.49 55.67"><defs><style>.cls-1{fill:none;stroke:#008ad1;stroke-linejoin:round;stroke-width:1.5px;}.cls-2{fill:#008ad1;}</style></defs><g id="Layer_2" data-name="Layer 2"><g id="Layer_1-2" data-name="Layer 1"><path class="cls-1" d="M53,34.81l-1.69-.09a13.19,13.19,0,0,0-1-2.45L51.45,31a.86.86,0,0,0,0-1.09l-2.53-2.54a.72.72,0,0,0-1.1,0l-1.27,1.18a12.26,12.26,0,0,0-2.45-1L44,25.85a.76.76,0,0,0-.76-.76H39.71a.76.76,0,0,0-.76.76l-.09,1.69a12.51,12.51,0,0,0-2.45,1l-1.27-1.18h0a.72.72,0,0,0-1.09.08l-.09.09-2.45,2.37a.71.71,0,0,0,0,1.09l1.1,1.27a12.51,12.51,0,0,0-1,2.45l-1.69.09a.76.76,0,0,0-.77.76v3.55a.76.76,0,0,0,.77.76L31.6,40a12.26,12.26,0,0,0,1,2.45l-1.1,1.27a.9.9,0,0,0,0,1.1l2.54,2.53a.71.71,0,0,0,1.09,0l1.27-1.18a13.19,13.19,0,0,0,2.45,1L39,48.84a.76.76,0,0,0,.76.76h3.55a.76.76,0,0,0,.76-.76l.08-1.69a12.91,12.91,0,0,0,2.45-1l1.27,1.18a.87.87,0,0,0,1.1,0l2.53-2.53a.72.72,0,0,0,0-1.1l-1.18-1.27a12.91,12.91,0,0,0,1-2.45L53,39.88a.76.76,0,0,0,.76-.76V35.57A.75.75,0,0,0,53,34.81ZM41.4,41.91A4.57,4.57,0,1,1,46,37.34,4.54,4.54,0,0,1,41.4,41.91Z"></path><path class="cls-1" d="M11.91,8.44H24.75a.76.76,0,0,0,.76-.76V3.54a.76.76,0,0,0-.76-.76H21a2.72,2.72,0,0,0-2.62-2,2.85,2.85,0,0,0-2.7,1.94H12a.76.76,0,0,0-.76.76V7.6A.71.71,0,0,0,11.91,8.44Z"></path><path class="cls-1" d="M32.78,48.5,30.24,46a2.49,2.49,0,0,1-.08-3.46l.34-.43a1.07,1.07,0,0,1-.17-.5h-.51a2.51,2.51,0,0,1-2.37-2.45V35.57a2.44,2.44,0,0,1,2.37-2.45h.51l.25-.51-.34-.42a2.51,2.51,0,0,1,.09-3.47l2.45-2.53a2.6,2.6,0,0,1,1.77-.76,2.26,2.26,0,0,1,1,.25h.17l.17.17V8.61A3.21,3.21,0,0,0,32.69,5.4h-5.4V7.6a2.46,2.46,0,0,1-2.46,2.45H11.91A2.46,2.46,0,0,1,9.45,7.6V5.48H4A3.21,3.21,0,0,0,.75,8.69v43A3.21,3.21,0,0,0,4,54.92H32.78A3.21,3.21,0,0,0,36,51.71V48.92a2.59,2.59,0,0,1-1.35.42A3,3,0,0,1,32.78,48.5Z"></path><path class="cls-2" d="M11,45.2,7.43,48.75a.85.85,0,0,1-1.36-.17l-1.26-2.2a.85.85,0,0,1,.33-1.18.87.87,0,0,1,1.19.34L7,46.72l2.79-2.79a.84.84,0,0,1,1.19,0A.94.94,0,0,1,11,45.2Z"></path><path class="cls-2" d="M11,37.6,7.43,41.14A.84.84,0,0,1,6.07,41l-1.26-2.2a.85.85,0,0,1,.33-1.18.91.91,0,0,1,1.19.25L7,39.12l2.79-2.79a.82.82,0,0,1,1.19,0A.94.94,0,0,1,11,37.6Z"></path><path class="cls-2" d="M11,29.91,7.43,33.45a.84.84,0,0,1-1.36-.16l-1.26-2.2a.85.85,0,0,1,.33-1.18.86.86,0,0,1,1.19.33L7,31.51l2.79-2.79a.82.82,0,0,1,1.19,0A.84.84,0,0,1,11,29.91Z"></path><path class="cls-2" d="M11,22.3,7.43,25.85a1,1,0,0,1-1.36-.17l-1.26-2.2a.85.85,0,0,1,.33-1.18.87.87,0,0,1,1.19.34L7,23.91l2.79-2.79A.84.84,0,1,1,11,22.3Z"></path><path class="cls-2" d="M11,14.69,7.43,18.24a1,1,0,0,1-1.36-.17L4.81,15.88a.86.86,0,0,1,.33-1.19A.87.87,0,0,1,6.33,15L7,16.22l2.79-2.79a.82.82,0,0,1,1.19,0A.92.92,0,0,1,11,14.69Z"></path><path class="cls-2" d="M12.92,15.71H31.26a.9.9,0,0,1,.84.84.85.85,0,0,1-.84.85H12.92a.85.85,0,0,1-.85-.85A.91.91,0,0,1,12.92,15.71Z"></path><path class="cls-2" d="M12.92,23.48H31.26a.91.91,0,0,1,.84.85.84.84,0,0,1-.84.84H12.92a.85.85,0,1,1,0-1.69Z"></path><path class="cls-2" d="M21.88,48.33h-9a.91.91,0,0,1-.85-.85.85.85,0,0,1,.85-.84h9a.85.85,0,0,1,0,1.69Z"></path><path class="cls-2" d="M24.75,40.64H12.92a.91.91,0,0,1-.85-.85.8.8,0,0,1,.85-.84H24.75a.85.85,0,0,1,.85.84A.91.91,0,0,1,24.75,40.64Z"></path><path class="cls-2" d="M26.78,32.86H12.92a.85.85,0,0,1-.85-.84.85.85,0,0,1,.85-.85H26.78a.91.91,0,0,1,.84.85A.84.84,0,0,1,26.78,32.86Z"></path></g></g></svg> 